<svg width="32" height="32" viewBox="0 0 32 32" fill="none" xmlns="http://www.w3.org/2000/svg">
<path d="M27.0752 16C27.0752 9.88345 22.1166 4.9248 16 4.9248C9.88345 4.9248 4.9248 9.88345 4.9248 16C4.9248 22.1166 9.88345 27.0752 16 27.0752C22.1166 27.0752 27.0752 22.1166 27.0752 16ZM14.0127 11.3457C14.3738 10.9847 14.9591 10.9848 15.3203 11.3457L19.3203 15.3457C19.6815 15.7069 19.6815 16.2931 19.3203 16.6543L15.3203 20.6543C14.9591 21.0152 14.3738 21.0153 14.0127 20.6543C13.6515 20.2931 13.6515 19.7069 14.0127 19.3457L17.3584 16L14.0127 12.6543C13.6515 12.2931 13.6515 11.7069 14.0127 11.3457ZM28.9248 16C28.9248 23.1383 23.1383 28.9248 16 28.9248C8.86172 28.9248 3.0752 23.1383 3.0752 16C3.0752 8.86172 8.86172 3.0752 16 3.0752C23.1383 3.0752 28.9248 8.86172 28.9248 16Z" fill="#212121"/>
</svg>
