<svg width="32" height="32" viewBox="0 0 32 32" fill="none" xmlns="http://www.w3.org/2000/svg">
<path d="M16.9797 14.3135C17.175 14.1182 17.4915 14.1182 17.6868 14.3135L24.3538 20.9795C24.4475 21.0732 24.5002 21.2005 24.5002 21.333C24.5002 21.4655 24.4473 21.5928 24.3538 21.6865L17.6868 28.3535C17.4915 28.5488 17.175 28.5488 16.9797 28.3535C16.7845 28.1583 16.7845 27.8417 16.9797 27.6465L22.7932 21.833H13.5959C12.8591 21.833 12.276 21.8332 11.8069 21.7949C11.3318 21.7561 10.9289 21.6754 10.5618 21.4883C9.9656 21.1845 9.48131 20.6988 9.17798 20.1035C8.99091 19.7362 8.91019 19.3337 8.87134 18.8584C8.83297 18.3888 8.83325 17.8048 8.83325 17.0664V4C8.83325 3.72386 9.05711 3.5 9.33325 3.5C9.60939 3.5 9.83325 3.72386 9.83325 4V17.0664C9.83325 17.8214 9.83413 18.3579 9.86841 18.7773C9.9022 19.1906 9.96623 19.4465 10.0696 19.6494C10.2775 20.0575 10.6086 20.3902 11.0159 20.5977C11.2186 20.7009 11.4747 20.7651 11.8879 20.7988C12.307 20.8331 12.8425 20.833 13.5959 20.833H22.7932L16.9797 15.0205C16.7845 14.8253 16.7846 14.5088 16.9797 14.3135Z" fill="#212121"/>
</svg>
