<svg width="32" height="32" viewBox="0 0 32 32" fill="none" xmlns="http://www.w3.org/2000/svg">
<path d="M12 16H12.0133" stroke="#212121" stroke-width="2" stroke-linecap="round" stroke-linejoin="round"/>
<path d="M20 16H20.0133" stroke="#212121" stroke-width="2" stroke-linecap="round" stroke-linejoin="round"/>
<path d="M13.3333 21.3335C13.9999 21.7335 14.9333 22.0002 15.9999 22.0002C17.0666 22.0002 17.9999 21.7335 18.6666 21.3335" stroke="#212121" stroke-width="2" stroke-linecap="round" stroke-linejoin="round"/>
<path d="M25.3334 8.4C26.5414 9.91423 27.3648 11.6984 27.7334 13.6C28.1843 13.8184 28.5645 14.1593 28.8305 14.5838C29.0966 15.0082 29.2377 15.499 29.2377 16C29.2377 16.501 29.0966 16.9918 28.8305 17.4162C28.5645 17.8407 28.1843 18.1816 27.7334 18.4C27.1578 21.0846 25.679 23.4907 23.5437 25.2167C21.4084 26.9427 18.7457 27.8843 16.0001 27.8843C13.2544 27.8843 10.5918 26.9427 8.4565 25.2167C6.32119 23.4907 4.84236 21.0846 4.26674 18.4C3.81589 18.1816 3.43566 17.8407 3.16961 17.4162C2.90356 16.9918 2.76245 16.501 2.76245 16C2.76245 15.499 2.90356 15.0082 3.16961 14.5838C3.43566 14.1593 3.81589 13.8184 4.26674 13.6C4.8191 10.894 6.28794 8.46136 8.42545 6.71249C10.563 4.96362 13.2383 4.00557 16.0001 4C18.6667 4 20.6667 5.46667 20.6667 7.33333C20.6667 9.2 19.4667 10.6667 18.0001 10.6667C16.9334 10.6667 16.0001 10.1333 16.0001 9.33333" stroke="#212121" stroke-width="2" stroke-linecap="round" stroke-linejoin="round"/>
</svg>
