<svg width="32" height="32" viewBox="0 0 32 32" fill="none" xmlns="http://www.w3.org/2000/svg">
<path d="M19.0004 23.667H13.0004V24C13.0004 25.6569 14.3435 27 16.0004 27C17.6571 26.9998 19.0004 25.6567 19.0004 24V23.667ZM7.66638 18.2969C7.66631 18.7996 7.46631 19.2811 7.1117 19.6357L6.59217 20.1553C6.50902 20.2384 6.4623 20.2858 6.4281 20.3223C6.39818 20.3542 6.39363 20.3615 6.39588 20.3584C6.36643 20.3994 6.34674 20.4469 6.33826 20.498C6.33868 20.4952 6.33665 20.5044 6.33533 20.5459C6.33374 20.5962 6.33338 20.6628 6.33338 20.7812C6.33338 21.0496 6.33344 21.2095 6.34021 21.3291C6.34654 21.4407 6.35646 21.4569 6.35096 21.4404C6.38418 21.5385 6.46209 21.6161 6.56092 21.6494C6.54363 21.6436 6.55837 21.6529 6.66931 21.6592C6.7878 21.6659 6.94692 21.667 7.21326 21.667H24.7875C25.0537 21.667 25.2127 21.6659 25.3314 21.6592C25.4424 21.6529 25.4579 21.6437 25.4408 21.6494C25.5379 21.6166 25.6151 21.5401 25.6488 21.4404C25.6433 21.457 25.6532 21.4409 25.6595 21.3291C25.6663 21.2095 25.6664 21.0496 25.6664 20.7812C25.6664 20.6634 25.6661 20.5968 25.6644 20.5469C25.6634 20.516 25.662 20.5028 25.6615 20.499L25.64 20.4229C25.6304 20.3996 25.6188 20.3779 25.6049 20.3584C25.6029 20.3558 25.5944 20.3455 25.5726 20.3223C25.538 20.2854 25.4909 20.2386 25.4076 20.1553L24.8881 19.6357C24.5331 19.2807 24.3335 18.799 24.3334 18.2969V13.333C24.3332 8.73088 20.6025 5.00016 16.0004 5C11.3981 5.00001 7.66656 8.7308 7.66638 13.333V18.2969ZM26.3334 18.252L26.8217 18.7402C26.9569 18.8755 27.107 19.0217 27.2289 19.1914C27.4139 19.449 27.5419 19.7396 27.6097 20.0439L27.6351 20.1748L27.6547 20.3291C27.6681 20.4831 27.6664 20.6355 27.6664 20.7812C27.6664 21.2145 27.6798 21.6771 27.5443 22.0791C27.3119 22.7681 26.7711 23.3116 26.0795 23.5449C25.7785 23.6463 25.4435 23.6644 25.1137 23.667H21.0004V24C21.0004 26.7613 18.7616 28.9998 16.0004 29C13.2389 29 11.0004 26.7614 11.0004 24V23.667H6.88611C6.55652 23.6644 6.22211 23.6464 5.92127 23.5449C5.23124 23.3122 4.68842 22.7698 4.45545 22.0791C4.31993 21.6771 4.33338 21.2145 4.33338 20.7812C4.33338 20.5889 4.33077 20.3812 4.36463 20.1748C4.42272 19.8208 4.56084 19.4839 4.77088 19.1914C4.89263 19.0219 5.041 18.8773 5.1781 18.7402L5.66638 18.252V13.333C5.66656 7.62622 10.2936 3.00001 16.0004 3C21.7071 3.00016 26.3332 7.62632 26.3334 13.333V18.252Z" fill="#212121"/>
<path d="M29.3333 8.00016C29.3333 11.6821 26.3486 14.6668 22.6667 14.6668C18.9848 14.6668 16 11.6821 16 8.00016C16 4.31826 18.9848 1.3335 22.6667 1.3335C26.3486 1.3335 29.3333 4.31826 29.3333 8.00016Z" fill="#E55656"/>
</svg>
