<svg width="32" height="32" viewBox="0 0 32 32" fill="none" xmlns="http://www.w3.org/2000/svg">
<path d="M8 9.60042V22.2473C8 24.0621 8 24.9693 8.27216 25.5245C8.77659 26.5537 9.8821 27.1452 11.0182 26.994C11.6312 26.9125 12.3862 26.4091 13.8961 25.4025L13.8998 25.4001C14.4982 25.0011 14.7975 24.8016 15.1106 24.6909C15.6856 24.4877 16.313 24.4877 16.888 24.6909C17.2017 24.8018 17.5022 25.0021 18.1031 25.4027C19.613 26.4093 20.3689 26.9123 20.9818 26.9938C22.118 27.145 23.2234 26.5537 23.7279 25.5245C24 24.9693 24 24.0618 24 22.2473V9.59604C24 8.10549 24 7.3591 23.7096 6.78923C23.454 6.28746 23.045 5.87981 22.5432 5.62415C21.9728 5.3335 21.2271 5.3335 19.7336 5.3335H12.2669C10.7735 5.3335 10.0262 5.3335 9.45573 5.62415C8.95396 5.87981 8.54631 6.28746 8.29065 6.78923C8 7.35966 8 8.10695 8 9.60042Z" stroke="#212121" stroke-linecap="round" stroke-linejoin="round"/>
</svg>
