<svg viewBox="0 0 32 32"  xmlns="http://www.w3.org/2000/svg">
<path d="M23.5 9.59619C23.5 8.84274 23.5001 8.30723 23.4658 7.88818C23.432 7.47493 23.3669 7.21881 23.2637 7.01611C23.0563 6.60917 22.7244 6.27779 22.3164 6.06982C22.1134 5.96637 21.8568 5.90245 21.4434 5.86865C21.0241 5.8344 20.4882 5.8335 19.7334 5.8335H12.2666C11.5118 5.8335 10.9753 5.83437 10.5557 5.86865C10.1419 5.90247 9.88553 5.96644 9.68262 6.06982C9.27506 6.27753 8.94403 6.60855 8.73633 7.01611C8.63294 7.21902 8.56897 7.47538 8.53516 7.88916C8.50088 8.30884 8.5 8.84529 8.5 9.6001V22.2476C8.5 23.1617 8.5005 23.8228 8.5332 24.3257C8.56618 24.8327 8.62933 25.1176 8.7207 25.3042C9.13051 26.1403 10.029 26.6213 10.9521 26.4985C11.1582 26.4711 11.4306 26.3658 11.8711 26.1118C12.3077 25.86 12.8585 25.4939 13.6191 24.9868L13.6221 24.9839C14.198 24.5999 14.5583 24.3557 14.9443 24.2192C15.627 23.978 16.372 23.978 17.0547 24.2192C17.4413 24.3559 17.8026 24.6013 18.3809 24.9868C19.1413 25.4938 19.6922 25.8602 20.1289 26.1118C20.5694 26.3656 20.8417 26.4711 21.0479 26.4985C21.971 26.6213 22.8695 26.1403 23.2793 25.3042C23.3707 25.1176 23.4338 24.8328 23.4668 24.3257C23.4995 23.8227 23.5 23.1616 23.5 22.2476V9.59619ZM24.5 22.2476C24.5 23.1475 24.5001 23.8471 24.4648 24.3901C24.4298 24.9288 24.3574 25.376 24.1768 25.7446C23.5777 26.9668 22.265 27.6692 20.916 27.4897C20.5092 27.4356 20.0969 27.2476 19.6289 26.978C19.1572 26.7062 18.5751 26.3181 17.8262 25.8188C17.2029 25.4034 16.9623 25.2477 16.7217 25.1626C16.2545 24.9975 15.7445 24.9975 15.2773 25.1626C15.0372 25.2475 14.7978 25.4019 14.1768 25.8159L14.1738 25.8188C13.4246 26.3183 12.8417 26.7061 12.3701 26.978C11.9025 27.2476 11.4909 27.4356 11.084 27.4897C9.73497 27.6691 8.42227 26.9667 7.82324 25.7446C7.64261 25.3761 7.5702 24.9296 7.53516 24.3911C7.49983 23.848 7.5 23.1479 7.5 22.2476V9.6001C7.5 8.86182 7.49972 8.2779 7.53809 7.80811C7.57694 7.33241 7.65749 6.92949 7.84473 6.56201C8.14833 5.96617 8.63267 5.48182 9.22852 5.17822C9.59599 4.99098 9.99892 4.91044 10.4746 4.87158C10.9444 4.83322 11.5283 4.8335 12.2666 4.8335H19.7334C20.4719 4.8335 21.0559 4.8332 21.5254 4.87158C22.0007 4.91045 22.4031 4.99104 22.7705 5.17822C23.3657 5.48153 23.8514 5.96571 24.1553 6.56201C24.3424 6.92919 24.4231 7.33208 24.4619 7.80713C24.5002 8.27629 24.5 8.8594 24.5 9.59619V22.2476Z" fill="#212121"/>
</svg>
