<svg viewBox="0 0 32 32" xmlns="http://www.w3.org/2000/svg">
<path d="M25.6663 9.59619C25.6663 8.83468 25.6662 8.32312 25.634 7.9292C25.6028 7.54737 25.5469 7.36411 25.4856 7.24365C25.3264 6.93121 25.0707 6.67549 24.7561 6.51514C24.6352 6.45356 24.452 6.39796 24.0696 6.3667C23.6755 6.33448 23.1636 6.3335 22.4006 6.3335H11.6663V25.6665H22.4036C23.1653 25.6665 23.6769 25.6665 24.0706 25.6343C24.4525 25.603 24.6355 25.5473 24.7561 25.4858C25.0702 25.3258 25.3261 25.0694 25.4856 24.7563C25.5469 24.6358 25.6028 24.4531 25.634 24.0718C25.6662 23.6781 25.6663 23.1666 25.6663 22.4048V9.59619ZM21.3333 13.6665C21.8854 13.6665 22.3331 14.1144 22.3333 14.6665C22.3333 15.2188 21.8855 15.6665 21.3333 15.6665H16.0002C15.448 15.6665 15.0002 15.2188 15.0002 14.6665C15.0004 14.1144 15.4481 13.6665 16.0002 13.6665H21.3333ZM21.3333 9.6665C21.8854 9.6665 22.3331 10.1144 22.3333 10.6665C22.3333 11.2188 21.8855 11.6665 21.3333 11.6665H16.0002C15.448 11.6665 15.0002 11.2188 15.0002 10.6665C15.0004 10.1144 15.4481 9.6665 16.0002 9.6665H21.3333ZM6.33325 22.4009C6.33325 23.1636 6.33426 23.6756 6.36646 24.0698C6.3977 24.4522 6.4534 24.6356 6.51489 24.7563C6.67497 25.0705 6.93037 25.3263 7.24341 25.4858C7.36387 25.5471 7.54713 25.6031 7.92896 25.6343C8.32288 25.6664 8.83444 25.6665 9.59595 25.6665H9.66626V6.3335H9.59985C8.83685 6.3335 8.32453 6.33447 7.92993 6.3667C7.54725 6.39796 7.3641 6.45371 7.24341 6.51514C6.92981 6.67493 6.67468 6.93005 6.51489 7.24365C6.45347 7.36435 6.39771 7.5475 6.36646 7.93018C6.33423 8.32477 6.33325 8.83709 6.33325 9.6001V22.4009ZM27.6663 22.4048C27.6663 23.1336 27.6676 23.7408 27.6272 24.2349C27.5858 24.7406 27.4957 25.2153 27.2668 25.6646C26.915 26.355 26.3527 26.9158 25.6633 27.2671C25.2141 27.496 24.7394 27.5861 24.2336 27.6274C23.7396 27.6678 23.1323 27.6665 22.4036 27.6665H9.59595C8.86726 27.6665 8.26016 27.6678 7.76587 27.6274C7.25993 27.5861 6.78462 27.4961 6.33521 27.2671C5.64471 26.9153 5.08391 26.3539 4.73267 25.6646C4.50363 25.215 4.41468 24.7393 4.37329 24.2329C4.33288 23.7383 4.33325 23.1308 4.33325 22.4009V9.6001C4.33325 8.87 4.33287 8.26198 4.37329 7.76709C4.41467 7.2607 4.50364 6.78505 4.73267 6.33545C5.0842 5.64552 5.64528 5.08445 6.33521 4.73291C6.78481 4.50389 7.26045 4.41491 7.76685 4.37354C8.26173 4.33311 8.86975 4.3335 9.59985 4.3335H22.4006C23.1306 4.3335 23.7382 4.33311 24.2327 4.37354C24.7389 4.41492 25.2139 4.50402 25.6633 4.73291C26.3522 5.08389 26.9148 5.64444 27.2668 6.33545C27.4958 6.78487 27.5859 7.26017 27.6272 7.76611C27.6676 8.2604 27.6663 8.8675 27.6663 9.59619V22.4048Z" />
</svg>
