<svg width="32" height="32" viewBox="0 0 32 32" fill="none" xmlns="http://www.w3.org/2000/svg">
<path d="M22 6.66652C22 6.33426 21.9954 6.12944 21.9483 5.94093L21.9454 5.92921C21.9142 5.79763 21.8471 5.67675 21.751 5.58156C21.6549 5.48635 21.5333 5.42012 21.4014 5.39015C21.3917 5.38794 21.3817 5.38581 21.3721 5.38331C21.201 5.33901 21.0031 5.33351 20.667 5.33351H12.5C12.3428 5.33351 11.9036 5.33335 11.4639 5.34328C11.2434 5.34826 11.0301 5.35532 10.8565 5.36574C10.6541 5.37789 10.585 5.39077 10.5997 5.38722L10.5957 5.3882C10.4642 5.41935 10.3433 5.4865 10.2481 5.58253C10.1529 5.6786 10.0867 5.80025 10.0567 5.93214C10.0545 5.94184 10.0523 5.95182 10.0498 5.96144C10.0055 6.1325 10 6.33044 10 6.66652V26.6665H22V6.66652ZM24 27.6665C24 28.2188 23.5523 28.6665 23 28.6665H9.00004C8.44776 28.6665 8.00004 28.2188 8.00004 27.6665V6.66652C8.00004 6.37302 7.99451 5.91802 8.11332 5.45949H8.1143C8.23021 4.97426 8.47673 4.52993 8.82817 4.17531C9.18547 3.81479 9.63628 3.5617 10.1299 3.44386C10.3139 3.39946 10.5573 3.38044 10.7373 3.36964C10.9466 3.35709 11.1875 3.34948 11.419 3.34425C11.8833 3.33377 12.3423 3.33351 12.5 3.33351H20.667C20.9542 3.33351 21.3954 3.3299 21.8438 3.44093L21.8448 3.43996C21.8458 3.44018 21.8467 3.44168 21.8477 3.44191C21.8563 3.44406 21.8654 3.44455 21.8741 3.44679L21.8731 3.44777C22.3587 3.56359 22.8034 3.80998 23.1582 4.16164C23.5168 4.51705 23.7691 4.965 23.8877 5.45558C24.0039 5.92017 24 6.36897 24 6.66652V27.6665Z" fill="#212121"/>
<path d="M8.99976 15C9.55204 15 9.99976 15.4478 9.99976 16V27.667C9.99958 28.2192 9.55193 28.667 8.99976 28.667H6.66675C4.83113 28.667 3.33374 27.1687 3.33374 25.3331V18.3692L3.33276 18.0684C3.34014 17.7672 3.37445 17.4672 3.43628 17.1719L3.44702 17.126C3.56508 16.6707 3.79348 16.2102 4.16284 15.8409C4.54049 15.4633 4.99826 15.2327 5.45874 15.1133C5.91756 14.9944 6.37319 15 6.66675 15H8.99976ZM5.33374 25.3331C5.33374 26.0641 5.9357 26.667 6.66675 26.667H7.99976V17H6.66675C6.33031 17 6.13187 17.0055 5.96069 17.0498C5.79149 17.0938 5.66576 17.167 5.5769 17.2559C5.50567 17.3273 5.43401 17.4447 5.38843 17.6094C5.34328 17.8356 5.32444 18.0663 5.33276 18.2969C5.3332 18.3089 5.33374 18.3211 5.33374 18.3331V25.3331Z" fill="#212121"/>
<path d="M26.667 14.8333C26.667 14.4863 26.6617 14.2988 26.6172 14.1272C26.5733 13.958 26.5 13.8323 26.4111 13.7434C26.3397 13.6721 26.2218 13.6006 26.0566 13.555C25.8305 13.5099 25.5996 13.491 25.3691 13.4993C25.3572 13.4997 25.3449 13.5003 25.333 13.5003H24V26.6663H25.333C25.6866 26.6663 26.0263 26.5257 26.2764 26.2757C26.5262 26.0257 26.667 25.6868 26.667 25.3333V14.8333ZM28.667 25.3333C28.667 26.2173 28.3155 27.0656 27.6904 27.6907C27.0653 28.3157 26.217 28.6663 25.333 28.6663H23C22.4477 28.6663 22 28.2186 22 27.6663V12.5003C22 11.948 22.4477 11.5003 23 11.5003H25.2969C25.5983 11.4894 25.9002 11.5063 26.1982 11.5501L26.4951 11.6028L26.541 11.6136C26.9963 11.7316 27.4559 11.9601 27.8252 12.3294C28.2028 12.707 28.4333 13.1648 28.5527 13.6253C28.6716 14.0837 28.667 14.5269 28.667 14.8333V25.3333Z" fill="#212121"/>
<path d="M18.3337 8L18.4353 8.00488C18.9397 8.05592 19.3337 8.4821 19.3337 9C19.3337 9.5179 18.9397 9.94408 18.4353 9.99512L18.3337 10H13.6667C13.1145 10 12.6667 9.55228 12.6667 9C12.6667 8.44772 13.1145 8 13.6667 8H18.3337Z" fill="#212121"/>
<path d="M18.3337 12.6665L18.4353 12.6714C18.9397 12.7224 19.3337 13.1486 19.3337 13.6665C19.3337 14.1844 18.9397 14.6106 18.4353 14.6616L18.3337 14.6665H13.6667C13.1145 14.6665 12.6667 14.2188 12.6667 13.6665C12.6667 13.1142 13.1145 12.6665 13.6667 12.6665H18.3337Z" fill="#212121"/>
<path d="M18.3337 17.3335L18.4353 17.3384C18.9397 17.3894 19.3337 17.8156 19.3337 18.3335C19.3337 18.8514 18.9397 19.2776 18.4353 19.3286L18.3337 19.3335H13.6667C13.1145 19.3335 12.6667 18.8858 12.6667 18.3335C12.6667 17.7812 13.1145 17.3335 13.6667 17.3335H18.3337Z" fill="#212121"/>
<path d="M18.3337 22L18.4353 22.0049C18.9397 22.0559 19.3337 22.4821 19.3337 23C19.3337 23.5179 18.9397 23.9441 18.4353 23.9951L18.3337 24H13.6667C13.1145 24 12.6667 23.5523 12.6667 23C12.6667 22.4477 13.1145 22 13.6667 22H18.3337Z" fill="#212121"/>
</svg>
