<svg width="32" height="32" viewBox="0 0 32 32" fill="none" xmlns="http://www.w3.org/2000/svg">
<path d="M27.0752 13.5962C27.0752 12.8357 27.0745 12.3201 27.042 11.9224C27.0104 11.5359 26.9533 11.3422 26.8857 11.2095C26.7193 10.8828 26.4518 10.6162 26.123 10.4487C25.9899 10.3809 25.7962 10.3232 25.4092 10.2915C25.0112 10.259 24.4954 10.2583 23.7334 10.2583H8.2666C7.50501 10.2583 6.98914 10.259 6.59082 10.2915C6.20322 10.3232 6.00901 10.381 5.87598 10.4487C5.54826 10.6157 5.28222 10.8818 5.11524 11.2095C5.04747 11.3425 4.98967 11.5367 4.95801 11.9243C4.9255 12.3226 4.92481 12.8385 4.92481 13.6001V21.0669C4.92481 21.8289 4.92548 22.3447 4.95801 22.7427C4.98965 23.1297 5.04738 23.3234 5.11524 23.4565C5.28273 23.7853 5.54926 24.0528 5.87598 24.2192C6.00872 24.2868 6.20245 24.3439 6.58887 24.3755C6.98661 24.408 7.50217 24.4087 8.2627 24.4087H23.7373C24.4978 24.4087 25.0127 24.408 25.4102 24.3755C25.7965 24.3439 25.9902 24.2869 26.123 24.2192C26.4508 24.0523 26.7188 23.7843 26.8857 23.4565C26.9534 23.3237 27.0104 23.13 27.042 22.7437C27.0745 22.3462 27.0752 21.8313 27.0752 21.0708V13.5962ZM19.0752 17.3335C19.0752 15.6352 17.6983 14.2583 16 14.2583C14.3017 14.2583 12.9248 15.6352 12.9248 17.3335C12.9248 19.0318 14.3017 20.4087 16 20.4087C17.6983 20.4087 19.0752 19.0318 19.0752 17.3335ZM13.7949 6.26319C13.1399 6.31148 12.5671 6.72362 12.3145 7.32862C12.293 7.38014 12.2713 7.44441 12.1982 7.66358L12.1963 7.66846L12.1943 7.67042L12.1953 7.67139C12.1643 7.76447 12.1448 7.82334 12.1309 7.86768C12.1218 7.89665 12.1183 7.91034 12.1172 7.91456C12.0669 8.15076 12.2319 8.3799 12.4717 8.40674C12.476 8.40699 12.4861 8.40732 12.5029 8.40772C12.536 8.40849 12.5809 8.40867 12.6523 8.4087H19.3477C19.4194 8.40867 19.4647 8.4085 19.498 8.40772C19.531 8.40695 19.5363 8.40596 19.5293 8.40674C19.7683 8.37999 19.9334 8.15157 19.8828 7.91456C19.8817 7.91037 19.8779 7.89568 19.8682 7.86475C19.8539 7.81921 19.8335 7.75889 19.8018 7.66358C19.7291 7.44572 19.7072 7.38047 19.6855 7.32862C19.4328 6.72322 18.8607 6.31145 18.2061 6.26319C18.1504 6.25909 18.0827 6.25831 17.8516 6.25831H14.1484C13.9176 6.25831 13.8506 6.2591 13.7949 6.26319ZM20.9248 17.3335C20.9248 20.0535 18.72 22.2583 16 22.2583C13.28 22.2583 11.0752 20.0535 11.0752 17.3335C11.0752 14.6135 13.28 12.4087 16 12.4087C18.72 12.4087 20.9248 14.6135 20.9248 17.3335ZM28.9248 21.0708C28.9248 21.8006 28.9258 22.4038 28.8857 22.894C28.8448 23.3951 28.7567 23.8595 28.5342 24.2964C28.1898 24.9722 27.6387 25.5233 26.9629 25.8677C26.526 26.0902 26.0616 26.1783 25.5605 26.2192C25.0703 26.2593 24.4671 26.2583 23.7373 26.2583H8.2627C7.53267 26.2583 6.92904 26.2593 6.43848 26.2192C5.93735 26.1783 5.47308 26.0902 5.03614 25.8677C4.35932 25.5228 3.81063 24.9712 3.4668 24.2964C3.24403 23.8592 3.15528 23.3948 3.11426 22.8931C3.07416 22.4023 3.0752 21.7982 3.0752 21.0669V13.6001C3.0752 12.8688 3.07415 12.2641 3.11426 11.773C3.15527 11.2712 3.24405 10.8069 3.4668 10.3696C3.81114 9.69382 4.36032 9.14464 5.03614 8.8003C5.47338 8.57755 5.93773 8.48877 6.43946 8.44776C6.93058 8.40764 7.53527 8.4087 8.2666 8.4087H10.2969C10.2447 8.12603 10.2435 7.8281 10.3076 7.52784C10.3366 7.39237 10.3894 7.23944 10.4404 7.08643L10.4424 7.07862C10.5061 6.88754 10.5533 6.7463 10.6074 6.6167C11.1289 5.36708 12.309 4.51806 13.6582 4.41846C13.7983 4.40814 13.9469 4.4087 14.1484 4.4087H17.8516C18.0528 4.4087 18.2019 4.40817 18.3418 4.41846C19.6915 4.51797 20.8712 5.36734 21.3926 6.6167C21.4465 6.74599 21.4935 6.88613 21.5576 7.07862C21.6103 7.23667 21.6632 7.39219 21.6924 7.52881C21.7564 7.82889 21.7543 8.12611 21.7022 8.4087H23.7334C24.4647 8.4087 25.0688 8.40766 25.5596 8.44776C26.0613 8.48878 26.5257 8.57753 26.9629 8.8003C27.6377 9.14413 28.1893 9.69282 28.5342 10.3696C28.7567 10.8066 28.8448 11.2709 28.8857 11.772C28.9258 12.2625 28.9248 12.8662 28.9248 13.5962V21.0708Z" fill="#212121"/>
</svg>
