<svg width="32" height="32" viewBox="0 0 32 32" fill="none" xmlns="http://www.w3.org/2000/svg">
<path d="M27.5 13.5962C27.5 12.8427 27.5001 12.3072 27.4658 11.8882C27.432 11.4749 27.3669 11.2188 27.2637 11.0161C27.0563 10.6092 26.7244 10.2778 26.3164 10.0698C26.1134 9.96637 25.8568 9.90245 25.4434 9.86865C25.0241 9.8344 24.4882 9.8335 23.7334 9.8335H8.2666C7.51179 9.8335 6.97534 9.83437 6.55566 9.86865C6.14189 9.90247 5.88553 9.96644 5.68262 10.0698C5.27506 10.2775 4.94403 10.6086 4.73633 11.0161C4.63294 11.219 4.56897 11.4754 4.53516 11.8892C4.50088 12.3088 4.5 12.8453 4.5 13.6001V21.0669C4.5 21.8217 4.50091 22.3576 4.53516 22.7769C4.56895 23.1903 4.63288 23.4469 4.73633 23.6499C4.94429 24.0579 5.27568 24.3897 5.68262 24.5972C5.88531 24.7004 6.14143 24.7655 6.55469 24.7993C6.97373 24.8336 7.50924 24.8335 8.2627 24.8335H23.7373C24.4908 24.8335 25.0265 24.8336 25.4453 24.7993C25.858 24.7655 26.1137 24.7004 26.3164 24.5972C26.7238 24.3895 27.056 24.0573 27.2637 23.6499C27.3669 23.4472 27.432 23.1915 27.4658 22.7788C27.5001 22.36 27.5 21.8243 27.5 21.0708V13.5962ZM19.5 17.3335C19.5 15.4005 17.933 13.8335 16 13.8335C14.067 13.8335 12.5 15.4005 12.5 17.3335C12.5 19.2665 14.067 20.8335 16 20.8335C17.933 20.8335 19.5 19.2665 19.5 17.3335ZM13.7637 5.83936C12.949 5.89941 12.2362 6.41225 11.9219 7.16553C11.8929 7.23496 11.8658 7.31705 11.7949 7.52979L11.7939 7.53174L11.791 7.53955C11.727 7.73167 11.7091 7.78859 11.7012 7.82568C11.5984 8.3075 11.9344 8.77364 12.4238 8.82861C12.4529 8.83187 12.5014 8.83343 12.6523 8.8335H19.3477L19.5762 8.82861C20.0653 8.77385 20.4018 8.30804 20.2988 7.82568C20.2907 7.78746 20.2714 7.72888 20.2051 7.52979C20.1343 7.31757 20.1062 7.23519 20.0771 7.16553C19.7627 6.41207 19.0517 5.8994 18.2373 5.83936C18.1623 5.83383 18.0759 5.8335 17.8516 5.8335H14.1484C13.9243 5.8335 13.8387 5.83384 13.7637 5.83936ZM20.5 17.3335C20.5 19.8188 18.4853 21.8335 16 21.8335C13.5147 21.8335 11.5 19.8188 11.5 17.3335C11.5 14.8482 13.5147 12.8335 16 12.8335C18.4853 12.8335 20.5 14.8482 20.5 17.3335ZM28.5 21.0708C28.5 21.8078 28.5003 22.3909 28.4619 22.8599C28.4231 23.3347 28.3423 23.7369 28.1553 24.104C27.8517 24.6997 27.3662 25.1852 26.7705 25.4888C26.4034 25.6758 26.0012 25.7566 25.5264 25.7954C25.0574 25.8338 24.4743 25.8335 23.7373 25.8335H8.2627C7.5259 25.8335 6.94279 25.8337 6.47363 25.7954C5.99858 25.7566 5.5957 25.6759 5.22852 25.4888C4.63221 25.1849 4.14803 24.6992 3.84473 24.104C3.65755 23.7366 3.57696 23.3342 3.53809 22.8589C3.4997 22.3894 3.5 21.8054 3.5 21.0669V13.6001C3.5 12.8618 3.49972 12.2779 3.53809 11.8081C3.57694 11.3324 3.65749 10.9295 3.84473 10.562C4.14833 9.96617 4.63267 9.48182 5.22852 9.17822C5.59599 8.99098 5.99892 8.91044 6.47461 8.87158C6.94441 8.83322 7.52833 8.8335 8.2666 8.8335H10.8857C10.7007 8.47244 10.6316 8.04783 10.7236 7.6167C10.7463 7.51056 10.7887 7.38633 10.8438 7.22119V7.21826L10.8467 7.21143C10.9122 7.01487 10.9526 6.89112 10.999 6.77979C11.4588 5.67839 12.4998 4.93012 13.6895 4.84229C13.8101 4.83339 13.9401 4.8335 14.1484 4.8335H17.8516C18.0596 4.8335 18.19 4.83342 18.3105 4.84229C19.5006 4.93001 20.5413 5.67844 21.001 6.77979C21.0475 6.8913 21.0882 7.01499 21.1543 7.21338C21.211 7.3834 21.2535 7.50956 21.2764 7.6167C21.3684 8.04775 21.2992 8.4724 21.1143 8.8335H23.7334C24.4719 8.8335 25.0559 8.8332 25.5254 8.87158C26.0007 8.91045 26.4031 8.99104 26.7705 9.17822C27.3657 9.48153 27.8514 9.96571 28.1553 10.562C28.3424 10.9292 28.4231 11.3321 28.4619 11.8071C28.5002 12.2763 28.5 12.8594 28.5 13.5962V21.0708Z" fill="#212121"/>
</svg>
