<svg viewBox="0 0 32 32"  xmlns="http://www.w3.org/2000/svg">
<path d="M27 16C27 9.92487 22.0751 5 16 5C9.92487 5 5 9.92487 5 16C5 18.0001 5.53294 19.8732 6.46387 21.4873L6.46777 21.4941L6.60156 21.7334C6.6519 21.8319 6.70191 21.9452 6.73438 22.0625C6.78801 22.2565 6.80248 22.4392 6.79004 22.6211C6.77356 22.8617 6.69147 23.0878 6.64844 23.2168L5.62305 26.293L5.62207 26.2969C5.60787 26.3395 5.59469 26.3798 5.58203 26.418C5.61893 26.4057 5.65812 26.3936 5.69922 26.3799C5.70185 26.379 5.70439 26.3778 5.70703 26.377L8.78223 25.3516C8.90436 25.3109 9.13669 25.2256 9.37891 25.209L9.52246 25.2051C9.61657 25.2066 9.7084 25.216 9.7998 25.2334L9.93652 25.2656L10.1084 25.3252C10.2744 25.3938 10.4192 25.4827 10.5068 25.5332L10.5127 25.5361C12.1268 26.467 13.9999 27 16 27C22.075 26.9997 27 22.0749 27 16ZM10.6689 15C10.9381 15 11.1966 15.1083 11.3848 15.3008C11.5729 15.4934 11.6752 15.7542 11.6689 16.0234V16.0264C11.6627 16.2915 11.5513 16.5435 11.3594 16.7266C11.1674 16.9095 10.9106 17.0083 10.6455 17.002H10.6426C10.1 16.9889 9.66717 16.5457 9.66699 16.0029V16C9.66699 15.4477 10.1147 15 10.667 15H10.6689ZM16.0029 15C16.272 15.0001 16.5297 15.1084 16.7178 15.3008C16.9059 15.4934 17.0082 15.7542 17.002 16.0234V16.0264C16.9957 16.2915 16.8843 16.5435 16.6924 16.7266C16.5004 16.9095 16.2436 17.0083 15.9785 17.002H15.9766C15.4339 16.989 15.0002 16.5457 15 16.0029V16C15 15.4477 15.4477 15 16 15H16.0029ZM21.3359 15C21.6052 15 21.8636 15.1082 22.0518 15.3008C22.2399 15.4934 22.3422 15.7542 22.3359 16.0234V16.0264C22.3297 16.2915 22.2183 16.5435 22.0264 16.7266C21.8345 16.9096 21.5776 17.0082 21.3125 17.002H21.3096C20.7669 16.989 20.3332 16.5457 20.333 16.0029V16C20.333 15.4478 20.7809 15.0002 21.333 15H21.3359ZM29 16C29 23.1796 23.1794 28.9997 16 29C13.6399 29 11.4235 28.37 9.51367 27.2686L9.50781 27.2656C9.48837 27.2544 9.47091 27.2445 9.45508 27.2354C9.44272 27.2395 9.42952 27.2442 9.41504 27.249L6.35547 28.2676C6.34752 28.2705 6.34005 28.2747 6.33203 28.2773C6.02806 28.3787 5.73389 28.477 5.49023 28.5342C5.26081 28.588 4.88669 28.6561 4.49512 28.5166C4.02508 28.349 3.65284 27.978 3.48438 27.5059C3.34451 27.1136 3.41186 26.7386 3.46582 26.5088C3.5232 26.2644 3.62278 25.9696 3.72461 25.6641L3.72559 25.6602L4.75098 22.585C4.75598 22.5699 4.75945 22.5557 4.76367 22.543C4.75504 22.528 4.74587 22.5114 4.73535 22.4932L4.73145 22.4863C3.62997 20.5765 3 18.3602 3 16C3 8.8203 8.8203 3 16 3C23.1797 3 29 8.8203 29 16Z" />
</svg>
