<svg width="32" height="32" viewBox="0 0 32 32" fill="none" xmlns="http://www.w3.org/2000/svg">
<path d="M27.0996 16C27.0996 9.86964 22.1304 4.90039 16 4.90039C9.86964 4.90039 4.90039 9.86964 4.90039 16C4.90039 18.0181 5.4375 19.9082 6.37695 21.5371L6.38086 21.5439C6.4333 21.6349 6.51758 21.773 6.58203 21.9287L6.63867 22.0898L6.66992 22.2246C6.69429 22.3574 6.69922 22.4858 6.69043 22.6143C6.67501 22.8394 6.59826 23.0519 6.55371 23.1855L5.53125 26.249L5.53027 26.2539L5.52734 26.2646C5.4875 26.3842 5.45335 26.4864 5.4248 26.5742C5.51164 26.546 5.6126 26.5139 5.73047 26.4746C5.73329 26.4736 5.73643 26.4726 5.73926 26.4717L8.81445 25.4463C8.94192 25.4038 9.15947 25.3241 9.38574 25.3086L9.52051 25.3047C9.65319 25.3067 9.78103 25.3257 9.91016 25.3613C10.1293 25.4219 10.3349 25.5487 10.457 25.6191L10.4629 25.623C12.0917 26.5624 13.982 27.0996 16 27.0996C22.1302 27.0994 27.0996 22.1301 27.0996 16ZM28.9004 16C28.9004 23.1244 23.1242 28.9001 16 28.9004C13.6578 28.9004 11.4585 28.2746 9.56348 27.1816L9.55762 27.1787C9.52113 27.1577 9.4916 27.1406 9.46582 27.126C9.4424 27.1337 9.41603 27.1435 9.38379 27.1543L6.32812 28.1719L6.2998 28.1816C5.9939 28.2836 5.70494 28.3816 5.4668 28.4375C5.24138 28.4904 4.89134 28.5513 4.52832 28.4219C4.08643 28.2642 3.7364 27.9155 3.57812 27.4717C3.44856 27.108 3.51048 26.7569 3.56348 26.5312C3.61957 26.2925 3.71693 26.0025 3.81934 25.6953L3.82031 25.6914L4.8457 22.6162C4.85683 22.5828 4.86526 22.5551 4.87305 22.5312C4.85888 22.5064 4.84231 22.4781 4.82227 22.4434L4.81836 22.4365C3.72541 20.5415 3.09961 18.3422 3.09961 16C3.09961 8.87553 8.87553 3.09961 16 3.09961C23.1245 3.09961 28.9004 8.87553 28.9004 16Z" fill="#212121"/>
</svg>
