<svg width="32" height="32" viewBox="0 0 32 32" fill="none" xmlns="http://www.w3.org/2000/svg">
<path d="M27.5 16C27.5 9.64873 22.3513 4.5 16 4.5C9.64872 4.5 4.5 9.64873 4.5 16C4.5 18.09 5.05688 20.0484 6.03027 21.7363L6.03418 21.7432C6.11649 21.8859 6.20935 22.0386 6.25293 22.1963C6.2902 22.3313 6.29992 22.4567 6.29102 22.5869C6.27987 22.7497 6.2246 22.9073 6.17383 23.0596L5.14844 26.1318L5.14941 26.1328L5.14746 26.1387C5.0362 26.4725 4.96374 26.6899 4.92578 26.8516C4.90235 26.9514 4.90141 26.9976 4.90137 27.0117C4.91819 27.0505 4.94964 27.0816 4.98926 27.0986C5.00388 27.0985 5.04983 27.0971 5.14746 27.0742C5.3083 27.0365 5.52494 26.9643 5.85742 26.8535C5.86004 26.8526 5.8626 26.8515 5.86523 26.8506L8.94043 25.8262C9.08899 25.7767 9.24971 25.7192 9.41309 25.708C9.54936 25.6987 9.6742 25.7113 9.80371 25.7471C9.9614 25.7907 10.1134 25.8831 10.2568 25.9658L10.2627 25.9688C11.9508 26.9423 13.9099 27.5 16 27.5C22.3511 27.4997 27.5 22.3511 27.5 16ZM28.5 16C28.5 22.9034 22.9033 28.4997 16 28.5C13.7301 28.5 11.5995 27.8946 9.76367 26.8359L9.75781 26.832C9.66887 26.7807 9.61588 26.7506 9.5752 26.7295C9.53734 26.7098 9.53029 26.709 9.53711 26.7109C9.51443 26.7047 9.50281 26.7036 9.48145 26.7051C9.4866 26.7047 9.47961 26.7044 9.44238 26.7148C9.4016 26.7263 9.34838 26.7439 9.25684 26.7744L6.18164 27.7998C6.17902 27.8007 6.17646 27.8019 6.17383 27.8027C5.86032 27.9072 5.59204 27.9972 5.37598 28.0479C5.16705 28.0969 4.91281 28.1339 4.66309 28.0449C4.33384 27.9275 4.07292 27.6682 3.95508 27.3379C3.86587 27.0877 3.90393 26.8326 3.95312 26.623C4.00404 26.4063 4.09425 26.1372 4.19922 25.8223L4.2002 25.8184L5.22559 22.7432C5.256 22.6519 5.27304 22.5986 5.28418 22.5586C5.29416 22.5227 5.29419 22.5151 5.29395 22.5186C5.29581 22.4912 5.29384 22.4792 5.28906 22.4619C5.28703 22.457 5.28132 22.4456 5.27051 22.4248C5.24946 22.3843 5.21897 22.3316 5.16797 22.2432L5.16406 22.2363C4.10528 20.4004 3.5 18.2701 3.5 16C3.5 9.09644 9.09644 3.5 16 3.5C22.9036 3.5 28.5 9.09644 28.5 16Z" fill="#212121"/>
</svg>
