<svg width="32" height="32" viewBox="0 0 32 32" fill="none" xmlns="http://www.w3.org/2000/svg">
<path d="M27.5 16C27.5 9.64873 22.3513 4.5 16 4.5C9.64873 4.5 4.5 9.64873 4.5 16C4.5 22.3513 9.64873 27.5 16 27.5C22.3513 27.5 27.5 22.3513 27.5 16ZM15.5 9.33301C15.5002 9.05702 15.724 8.83301 16 8.83301C16.276 8.83301 16.4998 9.05701 16.5 9.33301V15.5H22.667C22.943 15.5002 23.167 15.724 23.167 16C23.167 16.276 22.943 16.4998 22.667 16.5H16C15.7239 16.5 15.5 16.2761 15.5 16V9.33301ZM28.5 16C28.5 22.9036 22.9036 28.5 16 28.5C9.09644 28.5 3.5 22.9036 3.5 16C3.5 9.09644 9.09644 3.5 16 3.5C22.9036 3.5 28.5 9.09644 28.5 16Z" fill="#212121"/>
</svg>
