<svg width="32" height="32" viewBox="0 0 32 32" fill="none" xmlns="http://www.w3.org/2000/svg">
<path d="M27.0752 16C27.0752 9.88345 22.1166 4.9248 16 4.9248C9.88345 4.9248 4.9248 9.88345 4.9248 16C4.9248 22.1166 9.88345 27.0752 16 27.0752C22.1166 27.0752 27.0752 22.1166 27.0752 16ZM15.0752 9.33301C15.0754 8.82229 15.4892 8.4082 16 8.4082C16.5108 8.4082 16.9246 8.82229 16.9248 9.33301V15.0752H22.667C23.1777 15.0754 23.5918 15.4892 23.5918 16C23.5918 16.5108 23.1777 16.9246 22.667 16.9248H16C15.4891 16.9248 15.0752 16.5109 15.0752 16V9.33301ZM28.9248 16C28.9248 23.1383 23.1383 28.9248 16 28.9248C8.86172 28.9248 3.0752 23.1383 3.0752 16C3.0752 8.86172 8.86172 3.0752 16 3.0752C23.1383 3.0752 28.9248 8.86172 28.9248 16Z" fill="#212121"/>
</svg>
