<svg viewBox="0 0 32 32" fill="none" xmlns="http://www.w3.org/2000/svg">
<path d="M23.2929 7.29289C23.6834 6.90238 24.3164 6.90239 24.707 7.29289C25.0975 7.68342 25.0975 8.31643 24.707 8.70696L17.414 15.9999L24.707 23.2929C25.0974 23.6834 25.0975 24.3164 24.707 24.707C24.3164 25.0975 23.6834 25.0974 23.2929 24.707L15.9999 17.414L8.70696 24.707C8.31643 25.0975 7.68342 25.0975 7.29289 24.707C6.90239 24.3164 6.90238 23.6834 7.29289 23.2929L14.5859 15.9999L7.29289 8.70696C6.90237 8.31643 6.90237 7.68342 7.29289 7.29289C7.68342 6.90237 8.31643 6.90237 8.70696 7.29289L15.9999 14.5859L23.2929 7.29289Z" />
</svg>
