<svg width="32" height="32" viewBox="0 0 32 32" fill="none" xmlns="http://www.w3.org/2000/svg">
<path d="M20.6266 9.9594C21.0172 9.56902 21.6502 9.56892 22.0407 9.9594C22.431 10.3499 22.431 10.983 22.0407 11.3735L17.4137 15.9994L22.0407 20.6264C22.4309 21.0169 22.4311 21.65 22.0407 22.0405C21.6503 22.4309 21.0172 22.4306 20.6266 22.0405L15.9997 17.4135L11.3737 22.0405C10.9832 22.4308 10.3501 22.4308 9.95964 22.0405C9.56917 21.65 9.56926 21.0169 9.95964 20.6264L14.5856 15.9994L9.95964 11.3735C9.56912 10.9829 9.56912 10.3499 9.95964 9.9594C10.3502 9.56887 10.9832 9.56887 11.3737 9.9594L15.9997 14.5854L20.6266 9.9594Z" fill="#212121"/>
</svg>
