<svg width="32" height="32" viewBox="0 0 32 32" fill="none" xmlns="http://www.w3.org/2000/svg">
<path d="M27 16C27 9.92487 22.0751 5 16 5C9.92487 5 5 9.92487 5 16C5 22.0751 9.92487 27 16 27C22.0751 27 27 22.0751 27 16ZM20.9199 9.75586C21.2993 9.58366 21.7454 9.66533 22.04 9.95996C22.3347 10.2546 22.4163 10.7007 22.2441 11.0801L18.9102 18.4141C18.8101 18.6339 18.6339 18.8101 18.4141 18.9102L11.0801 22.2441C10.7007 22.4163 10.2546 22.3347 9.95996 22.04C9.66533 21.7454 9.58366 21.2993 9.75586 20.9199L13.0898 13.5859L13.1309 13.5059C13.2346 13.3234 13.3935 13.1774 13.5859 13.0898L20.9199 9.75586ZM14.7549 14.7549L12.6797 19.3193L17.2441 17.2441L19.3193 12.6797L14.7549 14.7549ZM29 16C29 23.1797 23.1797 29 16 29C8.8203 29 3 23.1797 3 16C3 8.8203 8.8203 3 16 3C23.1797 3 29 8.8203 29 16Z" fill="#212121"/>
</svg>
