<svg width="100%" height="100%" viewBox="0 0 32 32" fill="none" xmlns="http://www.w3.org/2000/svg">
<path d="M14.6667 23.9998C14.6667 24.7362 15.2637 25.3332 16.0001 25.3332C16.7365 25.3332 17.3334 24.7362 17.3334 23.9998C17.3334 23.2635 16.7365 22.6665 16.0001 22.6665C15.2637 22.6665 14.6667 23.2635 14.6667 23.9998Z" stroke="#212121" stroke-width="2" stroke-linecap="round" stroke-linejoin="round"/>
<path d="M14.6667 15.9998C14.6667 16.7362 15.2637 17.3332 16.0001 17.3332C16.7365 17.3332 17.3334 16.7362 17.3334 15.9998C17.3334 15.2635 16.7365 14.6665 16.0001 14.6665C15.2637 14.6665 14.6667 15.2635 14.6667 15.9998Z" stroke="#212121" stroke-width="2" stroke-linecap="round" stroke-linejoin="round"/>
<path d="M14.6667 7.99984C14.6667 8.73622 15.2637 9.33317 16.0001 9.33317C16.7365 9.33317 17.3334 8.73622 17.3334 7.99984C17.3334 7.26346 16.7365 6.6665 16.0001 6.6665C15.2637 6.6665 14.6667 7.26346 14.6667 7.99984Z" stroke="#212121" stroke-width="2" stroke-linecap="round" stroke-linejoin="round"/>
</svg>
