<svg width="32" height="32" viewBox="0 0 32 32" fill="none" xmlns="http://www.w3.org/2000/svg">
<path d="M26.6666 7.46696C26.6666 6.72022 26.6661 6.34658 26.5208 6.06136C26.3929 5.81048 26.1897 5.60665 25.9388 5.47882C25.6536 5.3335 25.2795 5.3335 24.5327 5.3335H7.46606C6.71933 5.3335 6.34633 5.3335 6.06112 5.47882C5.81023 5.60665 5.60641 5.81048 5.47858 6.06136C5.33325 6.34658 5.33325 6.72022 5.33325 7.46696V8.44997C5.33325 8.77609 5.33325 8.93928 5.37009 9.09273C5.40275 9.22877 5.45676 9.35873 5.52987 9.47803C5.6123 9.61254 5.7278 9.72804 5.95825 9.9585L12.7086 16.7088C12.9392 16.9394 13.0538 17.0541 13.1363 17.1886C13.2094 17.3079 13.2641 17.4383 13.2968 17.5744C13.3333 17.7263 13.3333 17.8875 13.3333 18.207V24.5482C13.3333 25.6911 13.3333 26.263 13.574 26.6071C13.7842 26.9077 14.1085 27.1081 14.4713 27.1617C14.8868 27.2231 15.3982 26.9678 16.4205 26.4567L17.4872 25.9233C17.9152 25.7093 18.1288 25.6019 18.2851 25.4422C18.4234 25.301 18.5292 25.1315 18.5937 24.9446C18.6665 24.7334 18.6666 24.4934 18.6666 24.0148V18.217C18.6666 17.8908 18.6666 17.7278 18.7034 17.5744C18.7361 17.4383 18.7901 17.3079 18.8632 17.1886C18.9451 17.055 19.0595 16.9406 19.287 16.7131L19.2916 16.7088L26.0419 9.9585C26.2725 9.72789 26.3872 9.61258 26.4696 9.47803C26.5427 9.35873 26.5975 9.22877 26.6301 9.09273C26.6666 8.94084 26.6666 8.77941 26.6666 8.4599V7.46696Z" stroke="#212121" stroke-width="2" stroke-linecap="round" stroke-linejoin="round"/>
</svg>
