<svg width="32" height="32" viewBox="0 0 32 32" fill="none" xmlns="http://www.w3.org/2000/svg">
<path d="M17.6664 24.0151V18.2173C17.6664 17.9389 17.6601 17.6365 17.7309 17.3413C17.788 17.1033 17.8832 16.8753 18.0111 16.6665C18.1692 16.4085 18.3864 16.2005 18.5805 16.0064L18.5844 16.0015L25.3354 9.25147C25.456 9.13084 25.5232 9.06256 25.5717 9.00928C25.604 8.97378 25.6154 8.95878 25.6176 8.95557C25.6379 8.92231 25.6504 8.88894 25.6576 8.85889C25.6586 8.85319 25.6616 8.83484 25.6635 8.79346C25.6667 8.72232 25.6664 8.62791 25.6664 8.45948V7.46729C25.6664 7.078 25.6659 6.84534 25.6518 6.67334C25.6386 6.51293 25.6193 6.49365 25.6303 6.51514C25.5978 6.45144 25.5465 6.40108 25.4848 6.36963C25.5068 6.38085 25.4885 6.36128 25.3275 6.34815C25.1551 6.33408 24.9224 6.3335 24.5326 6.3335H7.46621C7.07644 6.3335 6.8443 6.3341 6.67227 6.34815C6.51219 6.36123 6.4934 6.38063 6.51504 6.36963C6.45239 6.40158 6.40148 6.45249 6.36953 6.51514C6.3806 6.49337 6.36115 6.51205 6.34805 6.67237C6.33398 6.84462 6.3334 7.07743 6.3334 7.46729V8.44971C6.3334 8.62147 6.33398 8.71782 6.3373 8.79053C6.33931 8.83436 6.34124 8.85334 6.34219 8.85889C6.35015 8.89207 6.36359 8.92512 6.38223 8.95557C6.38491 8.95944 6.3963 8.97451 6.42715 9.0083C6.47622 9.06208 6.54406 9.1301 6.66543 9.25147L13.4154 16.0015C13.6125 16.1985 13.83 16.4076 13.9887 16.6665C14.1149 16.8725 14.211 17.1002 14.2689 17.3413C14.3394 17.6349 14.3334 17.9353 14.3334 18.2075V24.5483C14.3334 25.1389 14.3349 25.5132 14.3598 25.7856C14.3743 25.945 14.393 26.0182 14.4008 26.0425C14.4508 26.1091 14.5232 26.1531 14.6049 26.1685C14.6283 26.165 14.702 26.1519 14.8549 26.0923C15.1096 25.9929 15.4447 25.8262 15.973 25.562L17.0404 25.0288C17.2645 24.9168 17.3928 24.8524 17.4857 24.7983C17.5419 24.7657 17.5643 24.7481 17.5707 24.7427C17.6074 24.7053 17.6337 24.6626 17.6488 24.6187C17.6452 24.6292 17.6536 24.6141 17.6596 24.5181C17.6663 24.4101 17.6664 24.2663 17.6664 24.0151ZM27.6664 8.45948C27.6664 8.73164 27.6733 9.0322 27.6029 9.32569V9.32666C27.5448 9.56845 27.4483 9.79536 27.3227 10.0005C27.1644 10.2588 26.9481 10.4668 26.7494 10.6655L19.9984 17.4155C19.997 17.417 19.995 17.418 19.9936 17.4194C19.8737 17.5393 19.8075 17.6067 19.7592 17.6597C19.7297 17.6919 19.7191 17.7073 19.7162 17.7114C19.698 17.7412 19.6843 17.7741 19.6762 17.8081C19.6753 17.8133 19.6723 17.8321 19.6703 17.8765C19.667 17.9491 19.6664 18.0455 19.6664 18.2173V24.3247C19.6635 24.6396 19.6449 24.9652 19.5395 25.271C19.4257 25.6007 19.2393 25.8972 18.9994 26.1421C18.6982 26.4495 18.3 26.6354 17.935 26.8179L16.8676 27.3511C16.3739 27.5979 15.9427 27.8149 15.5824 27.9556C15.2235 28.0957 14.7934 28.2199 14.3256 28.1509C13.6906 28.0571 13.1221 27.706 12.7543 27.1802C12.4832 26.7924 12.4027 26.3519 12.3676 25.9683C12.3323 25.5831 12.3334 25.1002 12.3334 24.5483V18.2065C12.3334 18.0384 12.3328 17.9446 12.3295 17.8735C12.3276 17.8321 12.3255 17.8137 12.3246 17.8081C12.3172 17.7772 12.3035 17.744 12.2836 17.7114C12.2865 17.7161 12.2817 17.7048 12.2396 17.6587C12.1908 17.6052 12.1228 17.537 12.0014 17.4155L5.25137 10.6655C5.05461 10.4688 4.83581 10.2594 4.67715 10.0005C4.54967 9.79243 4.45518 9.56449 4.39785 9.32569C4.32707 9.03052 4.3334 8.72806 4.3334 8.44971V7.46729C4.3334 7.11041 4.33262 6.78184 4.35488 6.50928C4.37811 6.22522 4.43088 5.91393 4.5873 5.60694C4.81098 5.16803 5.16793 4.81109 5.60684 4.58741C5.91382 4.43099 6.22499 4.37821 6.50918 4.35498C6.78161 4.33272 7.10936 4.3335 7.46621 4.3335H24.5326C24.8895 4.3335 25.218 4.33273 25.4906 4.35498C25.7746 4.37819 26.0859 4.43097 26.393 4.58741C26.8328 4.81153 27.1883 5.16911 27.4115 5.60694C27.5678 5.91367 27.6215 6.22492 27.6449 6.50928C27.6673 6.78204 27.6664 7.11012 27.6664 7.46729V8.45948Z" fill="#212121"/>
</svg>
