<svg width="32" height="32" viewBox="0 0 32 32" fill="none" xmlns="http://www.w3.org/2000/svg">
<path d="M25.3337 21.6665C25.8858 21.6667 26.3336 22.1145 26.3337 22.6665C26.3337 23.2187 25.8859 23.6663 25.3337 23.6665H6.66675C6.11446 23.6665 5.66675 23.2188 5.66675 22.6665C5.66692 22.1144 6.11457 21.6665 6.66675 21.6665H25.3337ZM25.3337 15.0005C25.8859 15.0007 26.3337 15.4483 26.3337 16.0005C26.3336 16.5525 25.8858 17.0003 25.3337 17.0005H6.66675C6.11457 17.0005 5.66692 16.5526 5.66675 16.0005C5.66675 15.4482 6.11446 15.0005 6.66675 15.0005H25.3337ZM25.3337 8.3335C25.8859 8.33367 26.3337 8.78132 26.3337 9.3335C26.3337 9.88567 25.8859 10.3333 25.3337 10.3335H6.66675C6.11446 10.3335 5.66675 9.88578 5.66675 9.3335C5.66675 8.78121 6.11446 8.3335 6.66675 8.3335H25.3337Z" fill="#212121"/>
</svg>
