<svg width="32" height="32" viewBox="0 0 32 32" fill="none" xmlns="http://www.w3.org/2000/svg">
<path d="M25.6663 15.2697C25.6663 14.5064 25.6583 14.3007 25.6117 14.1222C25.5636 13.9383 25.4847 13.7643 25.3783 13.6076C25.2746 13.455 25.1247 13.3126 24.5511 12.8107L18.1517 7.21108C17.6425 6.7655 17.3018 6.46897 17.0208 6.25893C16.7501 6.05652 16.5943 5.98133 16.473 5.94545C16.1645 5.85422 15.8352 5.85422 15.5267 5.94545C15.4056 5.98128 15.2503 6.05672 14.9798 6.25893C14.6993 6.46869 14.3594 6.76421 13.8509 7.20912L7.44857 12.8107C6.8747 13.3128 6.72511 13.4549 6.62142 13.6076C6.51387 13.766 6.4346 13.9402 6.38705 14.1222C6.34053 14.3003 6.33334 14.5051 6.33334 15.2697V22.6671C6.33334 23.3019 6.33427 23.7279 6.35678 24.0578C6.37867 24.3786 6.41768 24.5349 6.46029 24.6378C6.62968 25.0468 6.95408 25.3713 7.36166 25.5402C7.46451 25.5828 7.62092 25.6228 7.94174 25.6447C8.27169 25.6672 8.6984 25.6671 9.33334 25.6671C9.96779 25.6671 10.3939 25.6672 10.724 25.6447C11.0452 25.6228 11.2022 25.5828 11.305 25.5402C11.7126 25.3713 12.037 25.0468 12.2064 24.6378C12.249 24.5349 12.288 24.3785 12.3099 24.0578C12.3324 23.7279 12.3333 23.3019 12.3333 22.6671V21.3331C12.3336 19.3083 13.9754 17.6671 16.0003 17.6671C18.0251 17.6673 19.6661 19.3084 19.6663 21.3331V22.6671C19.6663 23.3018 19.6673 23.7279 19.6898 24.0578C19.7117 24.3784 19.7507 24.535 19.7933 24.6378C19.9627 25.0468 20.2878 25.3713 20.6956 25.5402C20.7985 25.5827 20.955 25.6228 21.2757 25.6447C21.6056 25.6672 22.0317 25.6671 22.6663 25.6671C23.3013 25.6671 23.7278 25.6672 24.0579 25.6447C24.379 25.6228 24.5352 25.5827 24.638 25.5402C25.0456 25.3713 25.3699 25.047 25.5394 24.6378C25.582 24.5349 25.622 24.3786 25.6439 24.0578C25.6664 23.7279 25.6663 23.3019 25.6663 22.6671V15.2697ZM27.6663 22.6671C27.6663 23.2747 27.6673 23.7807 27.639 24.1945C27.6101 24.6172 27.5473 25.0165 27.387 25.4035C27.0152 26.3009 26.3026 27.0154 25.4037 27.3878C25.0164 27.5482 24.6166 27.6109 24.1937 27.6398C23.7797 27.668 23.2739 27.6671 22.6663 27.6671C22.0588 27.6671 21.5528 27.668 21.139 27.6398C20.7163 27.6109 20.3172 27.5482 19.93 27.3878C19.031 27.0154 18.3175 26.3013 17.9456 25.4035C17.7853 25.0164 17.7235 24.6171 17.6947 24.1945C17.6664 23.7807 17.6663 23.2746 17.6663 22.6671V21.3331C17.6661 20.413 16.9205 19.6673 16.0003 19.6671C15.08 19.6671 14.3336 20.4129 14.3333 21.3331V22.6671C14.3333 23.2747 14.3343 23.7807 14.306 24.1945C14.2771 24.6172 14.2144 25.0164 14.054 25.4035C13.6822 26.301 12.9695 27.0154 12.0706 27.3878C11.6835 27.5482 11.2835 27.6109 10.8607 27.6398C10.4468 27.668 9.94077 27.6671 9.33334 27.6671C8.72584 27.6671 8.21978 27.668 7.80599 27.6398C7.38319 27.6109 6.98322 27.5482 6.59603 27.3878C5.69726 27.0154 4.98445 26.3009 4.61263 25.4035C4.45232 25.0164 4.38954 24.6171 4.36068 24.1945C4.33245 23.7807 4.33334 23.2747 4.33334 22.6671V15.2697C4.33334 14.6096 4.32578 14.1012 4.45248 13.6163C4.55847 13.2108 4.73362 12.8285 4.96713 12.4845C5.24833 12.0704 5.63399 11.7417 6.13217 11.3058L12.5335 5.70424C13.019 5.27949 13.4252 4.92287 13.7816 4.65639C14.1479 4.38244 14.5208 4.15721 14.9593 4.02748C15.638 3.82678 16.3617 3.82678 17.0404 4.02748C17.4791 4.15726 17.8523 4.38314 18.2191 4.65736C18.5758 4.92411 18.982 5.28088 19.4681 5.70619L25.8685 11.3058C26.3666 11.7416 26.7523 12.0703 27.0335 12.4845C27.2682 12.8302 27.4417 13.2127 27.5472 13.6163C27.6738 14.1009 27.6663 14.6082 27.6663 15.2697V22.6671Z" fill="#212121"/>
</svg>
