<svg width="32" height="32" viewBox="0 0 32 32" fill="none" xmlns="http://www.w3.org/2000/svg">
<path d="M8.98791 10.1636C12.1204 7.03121 17.6269 5.37265 24.5279 5.70946L25.1998 5.74852L25.2926 5.75927C25.7481 5.83247 26.1002 6.21169 26.1315 6.68016C26.6123 13.8955 24.9488 19.6587 21.7154 22.8921C20.0832 24.5242 18.0626 25.4934 15.7858 25.6431C13.7274 25.7783 11.5263 25.2376 9.27404 24.0181L7.37365 25.9194C6.98305 26.3097 6.35 26.309 5.95959 25.9184C5.56924 25.5278 5.56903 24.8948 5.95959 24.5044L7.859 22.605C6.64013 20.3532 6.10172 18.1522 6.23693 16.0942C6.38658 13.8172 7.3556 11.7959 8.98791 10.1636ZM24.1813 7.69677C17.7069 7.42611 12.9464 9.03411 10.402 11.5786C9.08826 12.8925 8.34868 14.466 8.23303 16.2251C8.1368 17.6892 8.47052 19.3363 9.34338 21.1206L13.5016 16.9624C13.8921 16.5718 14.5261 16.5719 14.9166 16.9624C15.3068 17.3528 15.3068 17.986 14.9166 18.3765L10.7574 22.5347C12.5423 23.4082 14.1894 23.7431 15.6539 23.647C17.4132 23.5314 18.9875 22.7919 20.3014 21.478C22.846 18.9333 24.4522 14.172 24.1813 7.69677Z" fill="#212121"/>
</svg>
