<svg viewBox="0 0 32 32" fill="none" xmlns="http://www.w3.org/2000/svg">
<path d="M16.4854 28.2076C16.1835 28.3752 15.8165 28.3752 15.5146 28.2076L16 27.3335L16.4854 28.2076ZM27 12.6666C27 10.8667 26.478 9.56331 25.7344 8.67925C24.9878 7.79178 23.967 7.26493 22.8574 7.10503C20.6288 6.78389 18.0713 7.94835 16.9199 10.6509C16.7628 11.0197 16.4008 11.2593 16 11.2593C15.5992 11.2593 15.2372 11.0197 15.0801 10.6509C13.9287 7.94835 11.3712 6.78389 9.14258 7.10503C8.03299 7.26493 7.01217 7.79178 6.26562 8.67925C5.52199 9.56331 5 10.8667 5 12.6666C5.00006 16.1997 7.68816 19.6071 10.6641 22.2525C12.12 23.5467 13.5809 24.602 14.6797 25.3345C15.2276 25.6998 15.6832 25.9832 16 26.1744C16.3168 25.9832 16.7724 25.6998 17.3203 25.3345C18.4191 24.602 19.88 23.5467 21.3359 22.2525C24.3118 19.6071 26.9999 16.1997 27 12.6666ZM29 12.6666C28.9999 17.1333 25.688 21.0596 22.6641 23.7476C21.1201 25.12 19.5808 26.2312 18.4297 26.9986C17.8532 27.3829 17.3716 27.6826 17.0322 27.8873C16.8625 27.9896 16.7278 28.0689 16.6348 28.1226C16.5885 28.1494 16.5524 28.1699 16.5273 28.1841C16.5148 28.1912 16.505 28.1968 16.498 28.2007C16.4946 28.2027 16.4913 28.2045 16.4893 28.2056L16.4873 28.2066L16.4863 28.2076L16 27.3335L15.5137 28.2076L15.5127 28.2066L15.5107 28.2056C15.5087 28.2045 15.5054 28.2027 15.502 28.2007C15.495 28.1968 15.4852 28.1912 15.4727 28.1841C15.4476 28.1699 15.4115 28.1494 15.3652 28.1226C15.2722 28.0689 15.1375 27.9896 14.9678 27.8873C14.6284 27.6826 14.1468 27.3829 13.5703 26.9986C12.4192 26.2312 10.8799 25.12 9.33594 23.7476C6.31198 21.0596 3.00006 17.1333 3 12.6666C3 10.4666 3.64477 8.68651 4.73438 7.39117C5.82116 6.09923 7.30035 5.34991 8.85742 5.12554C11.4393 4.75352 14.2535 5.82077 16 8.23589C17.7465 5.82077 20.5607 4.75352 23.1426 5.12554C24.6996 5.34991 26.1788 6.09923 27.2656 7.39117C28.3552 8.68651 29 10.4666 29 12.6666Z" />
</svg>
