<svg width="32" height="32" viewBox="0 0 32 32" fill="none" xmlns="http://www.w3.org/2000/svg">
<path d="M6.66675 13.2305C6.66675 19.6996 12.326 25.0492 14.831 27.1003C15.1895 27.3938 15.3709 27.5423 15.6384 27.6176C15.8466 27.6763 16.1531 27.6763 16.3614 27.6176C16.6294 27.5422 16.8095 27.3951 17.1694 27.1005C19.6743 25.0494 25.3333 19.7002 25.3333 13.2311C25.3333 10.7829 24.35 8.43474 22.5997 6.70363C20.8494 4.97252 18.4755 4 16.0002 4C13.5248 4 11.1508 4.97267 9.40042 6.70378C7.65008 8.43488 6.66675 10.7823 6.66675 13.2305Z" stroke="#616161" stroke-linecap="round" stroke-linejoin="round"/>
<path d="M13.3334 12C13.3334 13.4728 14.5273 14.6667 16.0001 14.6667C17.4728 14.6667 18.6667 13.4728 18.6667 12C18.6667 10.5272 17.4728 9.33333 16.0001 9.33333C14.5273 9.33333 13.3334 10.5272 13.3334 12Z" stroke="#616161" stroke-linecap="round" stroke-linejoin="round"/>
</svg>
