<svg viewBox="0 0 32 32" fill="none" xmlns="http://www.w3.org/2000/svg">
<path d="M11.8857 3.51381C11.9984 3.48735 12.118 3.50005 12.2236 3.55287L20 7.44057L27.7764 3.55287C27.9312 3.47543 28.1153 3.48345 28.2627 3.57436C28.4101 3.66546 28.5 3.82685 28.5 4.00014V24.0001C28.5 24.1895 28.393 24.3627 28.2236 24.4474L20.2236 28.4474C20.0829 28.5178 19.9171 28.5178 19.7764 28.4474L12 24.5587L4.22363 28.4474C4.06875 28.5248 3.88466 28.5168 3.7373 28.4259C3.5899 28.3348 3.5 28.1734 3.5 28.0001V8.00014C3.5 7.81075 3.60698 7.63757 3.77637 7.55287L11.7764 3.55287L11.8857 3.51381ZM4.5 8.30873V27.1906L11.5 23.6906V4.80873L4.5 8.30873ZM12.5 23.6906L19.5 27.1906V8.30873L12.5 4.80873V23.6906ZM20.5 8.30873V27.1906L27.5 23.6906V4.80873L20.5 8.30873Z" />
</svg>
