<svg width="32" height="32" viewBox="0 0 32 32" fill="none" xmlns="http://www.w3.org/2000/svg">
<path d="M5.91675 13.2305C5.91675 10.5808 6.98112 8.04195 8.8728 6.1709C10.7643 4.30019 13.3283 3.25011 15.9998 3.25C18.6712 3.25 21.2351 4.29936 23.1267 6.16992C25.0186 8.04105 26.0837 10.5817 26.0837 13.2314C26.0836 16.6837 24.5759 19.7911 22.7996 22.2607C21.0194 24.7357 18.9244 26.6325 17.6443 27.6807C17.3161 27.9494 17.0118 28.2138 16.5642 28.3398C16.2232 28.4357 15.7763 28.4358 15.4353 28.3398C14.988 28.2139 14.6819 27.9474 14.3562 27.6807C13.076 26.6325 10.9812 24.7349 9.20093 22.2598C7.42451 19.7899 5.91675 16.6828 5.91675 13.2305ZM17.9167 12C17.9167 10.9415 17.0583 10.083 15.9998 10.083C14.9414 10.0832 14.0837 10.9416 14.0837 12C14.0837 13.0584 14.9414 13.9168 15.9998 13.917C17.0583 13.917 17.9167 13.0585 17.9167 12ZM7.41675 13.2305C7.41675 16.2471 8.7393 19.0488 10.4187 21.3838C12.0943 23.7135 14.0816 25.5167 15.3064 26.5195C15.6974 26.8397 15.7542 26.8709 15.8416 26.8955C15.9169 26.9167 16.0826 26.9167 16.158 26.8955C16.2463 26.8706 16.3028 26.8409 16.6941 26.5205C17.9189 25.5177 19.9062 23.7144 21.5818 21.3848C23.2611 19.05 24.5836 16.248 24.5837 13.2314C24.5837 10.9849 23.6807 8.82838 22.072 7.2373C20.4629 5.64591 18.2788 4.75 15.9998 4.75C13.7208 4.75011 11.5365 5.64601 9.92749 7.2373C8.31886 8.82841 7.41675 10.9841 7.41675 13.2305ZM19.4167 12C19.4167 13.887 17.8867 15.417 15.9998 15.417C14.1129 15.4168 12.5837 13.8869 12.5837 12C12.5837 10.1131 14.1129 8.58318 15.9998 8.58301C17.8867 8.58301 19.4167 10.113 19.4167 12Z" fill="#212121"/>
</svg>
