<svg width="32" height="32" viewBox="0 0 32 32" fill="none" xmlns="http://www.w3.org/2000/svg">
<path d="M6.16675 13.2305C6.16675 10.648 7.20408 8.17302 9.04858 6.34863C10.893 4.52449 13.3937 3.50011 15.9998 3.5C18.6058 3.5 21.1065 4.52367 22.9509 6.34766C24.7957 8.17211 25.8337 10.6489 25.8337 13.2314C25.8336 16.611 24.3565 19.6671 22.5964 22.1143C20.8337 24.5651 18.757 26.4467 17.4861 27.4873C17.1473 27.7647 16.8845 27.9895 16.4968 28.0986C16.1999 28.1822 15.7996 28.1822 15.5027 28.0986C15.1154 27.9895 14.851 27.7629 14.5144 27.4873C13.2435 26.4467 11.1668 24.565 9.40405 22.1143C7.64378 19.6669 6.16675 16.6102 6.16675 13.2305ZM18.1667 12C18.1667 10.8034 17.1964 9.83301 15.9998 9.83301C14.8033 9.83318 13.8337 10.8035 13.8337 12C13.8337 13.1965 14.8033 14.1668 15.9998 14.167C17.1964 14.167 18.1667 13.1966 18.1667 12ZM7.16675 13.2305C7.16675 16.3198 8.51996 19.1728 10.2156 21.5303C11.9086 23.8842 13.9142 25.7035 15.1482 26.7139C15.5281 27.0249 15.6268 27.0952 15.7742 27.1367C15.8939 27.1703 16.1068 27.1704 16.2263 27.1367C16.3743 27.095 16.4718 27.0254 16.8523 26.7139C18.0863 25.7035 20.0919 23.8842 21.7849 21.5303C23.4803 19.173 24.8336 16.3205 24.8337 13.2314C24.8337 10.9177 23.9037 8.69732 22.2478 7.05957C20.5916 5.42161 18.3443 4.5 15.9998 4.5C13.6554 4.50011 11.4078 5.4217 9.75171 7.05957C8.09591 8.69733 7.16675 10.9169 7.16675 13.2305ZM19.1667 12C19.1667 13.7489 17.7487 15.167 15.9998 15.167C14.251 15.1668 12.8337 13.7488 12.8337 12C12.8337 10.2512 14.251 8.83318 15.9998 8.83301C17.7487 8.83301 19.1667 10.2511 19.1667 12Z" fill="#212121"/>
</svg>
