<svg viewBox="0 0 32 32" fill="none" xmlns="http://www.w3.org/2000/svg">
<path d="M25.7689 3.08196C26.1755 2.99657 26.6518 2.94011 27.1156 3.11028C27.7378 3.33871 28.2287 3.82922 28.4574 4.45208C28.6276 4.91586 28.5711 5.39161 28.4857 5.79778C28.3982 6.21399 28.2387 6.7304 28.0521 7.33684L28.0512 7.3388L22.5971 25.0644C22.358 25.8413 22.1611 26.4849 21.9672 26.9618C21.786 27.4072 21.5288 27.9233 21.0482 28.2236C20.4299 28.6099 19.6624 28.6758 18.9867 28.3954C18.4633 28.1782 18.1246 27.7104 17.8724 27.3007C17.6025 26.862 17.3024 26.2602 16.9389 25.5331L13.4838 18.624C13.3511 18.3586 13.3344 18.3346 13.3226 18.3193C13.2988 18.2883 13.2741 18.2631 13.2494 18.2441C13.2366 18.2343 13.2144 18.2192 12.9594 18.0917L6.03456 14.6288C5.30733 14.2652 4.70565 13.9651 4.26698 13.6952C3.85726 13.4432 3.38948 13.1045 3.17225 12.581C2.89244 11.9063 2.95641 11.1384 3.34315 10.5195L3.46522 10.3495C3.77133 9.97573 4.21587 9.7592 4.60584 9.60052C5.08293 9.40639 5.72613 9.20879 6.50331 8.96966L24.2289 3.51556C24.8359 3.3288 25.3525 3.16947 25.7689 3.08196ZM26.4857 4.84954C26.5125 4.85773 26.451 4.82926 26.1498 4.89251C25.8361 4.95841 25.415 5.08653 24.7728 5.28411L7.04725 10.7382C6.23541 10.988 5.68645 11.1584 5.30311 11.3144C5.02538 11.4274 4.9277 11.4984 4.90467 11.5156C4.84547 11.6199 4.83536 11.7432 4.87635 11.8554C4.89612 11.876 4.98018 11.9628 5.23573 12.12C5.58825 12.3369 6.10195 12.5947 6.8617 12.9745L13.7865 16.4365C13.7941 16.4403 13.8023 16.4443 13.8099 16.4482L19.9037 10.3564C20.2649 9.99514 20.8501 9.99514 21.2113 10.3564C21.5725 10.7176 21.5725 11.3028 21.2113 11.664L15.1185 17.7568C15.1251 17.7699 15.1325 17.7827 15.139 17.7958L18.5932 24.705C18.973 25.4646 19.2316 25.9784 19.4486 26.331C19.6028 26.5816 19.6885 26.6683 19.7113 26.6904C19.823 26.7317 19.9458 26.7216 20.0512 26.662C20.0682 26.6392 20.1403 26.5425 20.2533 26.2646C20.4092 25.8812 20.5797 25.3321 20.8295 24.5204L26.2836 6.79485V6.7929L26.5287 5.98235C26.5937 5.75799 26.6422 5.57464 26.6752 5.4179C26.7223 5.19356 26.7188 5.10184 26.7172 5.08099C26.6756 4.97517 26.5923 4.89096 26.4857 4.84954Z" />
</svg>
