<svg width="32" height="32" viewBox="0 0 32 32" fill="none" xmlns="http://www.w3.org/2000/svg">
<path d="M3.78523 6.70034C3.23446 4.90967 4.91147 3.2346 6.70125 3.7853L27.7803 10.2706C29.7913 10.8898 30.0209 13.6464 28.1378 14.588L19.2042 19.0548C19.1397 19.087 19.087 19.139 19.0548 19.2033L14.588 28.1369C13.6465 30.0198 10.8906 29.7912 10.2716 27.7794L3.78523 6.70034ZM6.11336 5.69643C5.85718 5.61761 5.61791 5.85718 5.69636 6.11244L12.1827 27.1915C12.2713 27.479 12.6645 27.5111 12.7989 27.2423L17.2657 18.3087C17.4915 17.8573 17.8582 17.4915 18.3096 17.2658L27.2432 12.799C27.5116 12.6647 27.4795 12.2714 27.1915 12.1828L6.11336 5.69643Z" fill="#212121"/>
</svg>
