<svg viewBox="0 0 32 32" xmlns="http://www.w3.org/2000/svg">
<path d="M20.6125 4.99985C21.081 4.84769 21.5855 4.84772 22.054 4.99985C22.3813 5.10622 22.6388 5.28842 22.8557 5.4725C23.0636 5.64898 23.294 5.88055 23.5452 6.13168L25.8655 8.45102C26.1178 8.70332 26.3497 8.93498 26.5266 9.1434C26.7111 9.36075 26.8937 9.61833 27.0002 9.94614C27.1525 10.4148 27.1525 10.92 27.0002 11.3885C26.8938 11.7159 26.7119 11.9732 26.5276 12.1903C26.3508 12.3985 26.1184 12.6297 25.8665 12.8817H25.8645L11.3733 27.3739C11.1858 27.5613 10.9314 27.6668 10.6663 27.6668H5.33325C5.06804 27.6668 4.81376 27.5614 4.62622 27.3739C4.43873 27.1863 4.33325 26.932 4.33325 26.6668V21.3338C4.33325 21.0687 4.43874 20.8143 4.62622 20.6268L19.1223 6.12973L19.1252 6.12778C19.3748 5.87816 19.6041 5.64798 19.8108 5.4725C20.0278 5.28834 20.2851 5.10624 20.6125 4.99985ZM21.4368 6.90219C21.3699 6.88047 21.2976 6.88053 21.2307 6.90219C21.2538 6.89463 21.2266 6.89353 21.1047 6.99692C20.9734 7.10839 20.8092 7.27196 20.5344 7.54672L6.33325 21.7479V25.6668H10.2522L24.4514 11.4686L24.4602 11.4588L24.4612 11.4579C24.7307 11.1883 24.8918 11.0263 25.0022 10.8963C25.1062 10.7738 25.1055 10.747 25.0979 10.7704C25.1197 10.7034 25.1196 10.6311 25.0979 10.5643C25.1054 10.5874 25.1063 10.5599 25.0022 10.4373C24.8904 10.3057 24.7266 10.1413 24.4514 9.86606L22.1311 7.54575C21.8567 7.27134 21.6929 7.10821 21.5618 6.99692C21.4395 6.89317 21.4132 6.89452 21.4368 6.90219Z" />
</svg>
