<svg width="32" height="32" viewBox="0 0 32 32" fill="none" xmlns="http://www.w3.org/2000/svg">
<path d="M3.0752 6.52637C3.0752 4.62013 4.62039 3.0752 6.52637 3.0752H10.1943C11.6626 3.07533 12.9827 3.96897 13.5283 5.33203L14.9355 8.84668V8.84766C15.4256 10.0731 15.2032 11.4677 14.3594 12.4805H14.3584L13.6025 13.3877C13.0265 14.079 13.0724 15.0968 13.71 15.7344H13.7109L16.2656 18.291H16.2646C16.9014 18.9277 17.92 18.9734 18.6123 18.3965L19.5195 17.6406L19.7139 17.4893C20.7068 16.7708 22.0042 16.6063 23.1523 17.0654L26.668 18.4707L26.918 18.582C28.1398 19.1819 28.9258 20.4288 28.9258 21.8057L28.9248 25.4736L28.9209 25.6514C28.8284 27.4747 27.3203 28.9248 25.4736 28.9248C13.1034 28.9246 3.07537 18.8966 3.0752 6.52637ZM4.9248 6.52637C4.92498 17.8748 14.1252 27.075 25.4736 27.0752C26.3578 27.0752 27.0752 26.3582 27.0752 25.4736V21.8057L27.0703 21.6729C27.0203 21.0148 26.6011 20.4366 25.9814 20.1885L22.4658 18.7832C21.9087 18.5603 21.2791 18.6399 20.7979 18.9883L20.7041 19.0615L19.7969 19.8184C18.3701 21.0073 16.2708 20.9124 14.957 19.5986L12.4023 17.042C11.0895 15.7291 10.9918 13.6309 12.1816 12.2031L12.9375 11.2959C13.3475 10.8038 13.4551 10.1274 13.2178 9.53418L11.8115 6.02051V6.01953C11.547 5.35846 10.9063 4.92494 10.1943 4.9248H6.52637C5.64185 4.9248 4.9248 5.64212 4.9248 6.52637Z" fill="#212121"/>
</svg>
