<svg width="32" height="32" viewBox="0 0 32 32" fill="none" xmlns="http://www.w3.org/2000/svg">
<path d="M3.5 6.52637C3.5 4.85491 4.85505 3.5 6.52637 3.5H10.1943C11.4889 3.50013 12.6528 4.28834 13.1338 5.49023L14.541 9.00488C14.9731 10.0852 14.7765 11.3148 14.0322 12.208V12.209L13.2764 13.1162L13.2754 13.1152C12.6032 13.922 12.6126 15.0855 13.2695 15.8809L13.4102 16.0342V16.0352L15.9648 18.5918C16.7571 19.3837 18.0239 19.441 18.8848 18.7236L19.792 17.9668L19.9629 17.834C20.8383 17.2004 21.9826 17.055 22.9951 17.46L26.5098 18.8652C27.712 19.3461 28.501 20.5108 28.501 21.8057L28.5 25.4736L28.4961 25.6289C28.4153 27.228 27.093 28.5 25.4736 28.5C13.3382 28.4998 3.50018 18.6618 3.5 6.52637ZM4.5 6.52637C4.50018 18.1096 13.8904 27.4998 25.4736 27.5C26.5926 27.5 27.5 26.5928 27.5 25.4736L27.501 21.8057C27.501 20.9197 26.9612 20.123 26.1387 19.7939L22.624 18.3877C21.885 18.0921 21.0429 18.225 20.4316 18.7344L19.5254 19.4912H19.5244C18.2665 20.5395 16.4161 20.4567 15.2578 19.2988H15.2568L12.7021 16.7412C11.5449 15.5834 11.4592 13.734 12.5078 12.4756L13.2646 11.5684C13.7743 10.9567 13.9075 10.1153 13.6123 9.37695L12.2061 5.8623C11.8771 5.03981 11.0802 4.50013 10.1943 4.5H6.52637C5.40719 4.5 4.5 5.40733 4.5 6.52637Z" fill="#212121"/>
</svg>
