<svg viewBox="0 0 32 32" fill="none" xmlns="http://www.w3.org/2000/svg">
<path d="M27.5 19.7378V9.59619C27.5 8.84274 27.5001 8.30723 27.4658 7.88818C27.4321 7.47493 27.367 7.21881 27.2637 7.01611C27.0563 6.60917 26.7244 6.27779 26.3164 6.06982C26.1134 5.96637 25.8568 5.90245 25.4434 5.86865C25.0241 5.83441 24.4882 5.8335 23.7334 5.8335H8.2666C7.51179 5.8335 6.97534 5.83437 6.55567 5.86865C6.14189 5.90247 5.88553 5.96644 5.68262 6.06982C5.27506 6.27753 4.94403 6.60855 4.73633 7.01611C4.63294 7.21902 4.56897 7.47538 4.53516 7.88916C4.50088 8.30884 4.5 8.84529 4.5 9.6001V24.895C4.5 25.6153 4.50035 26.1209 4.53418 26.4937C4.56887 26.8756 4.63252 27.018 4.68164 27.0796C4.83998 27.2779 5.0803 27.3933 5.33399 27.3931C5.4127 27.393 5.5637 27.3537 5.88379 27.1421C6.19602 26.9356 6.59109 26.6202 7.15332 26.1704L9.18555 24.5444L9.19336 24.5386L9.2002 24.5327C9.60831 24.2062 9.86705 23.9964 10.1611 23.8462C10.4157 23.7161 10.6869 23.6222 10.9658 23.5649C11.2923 23.4979 11.6283 23.5005 12.1631 23.5005H23.7373C24.4908 23.5005 25.0263 23.4996 25.4453 23.4653C25.8585 23.4316 26.1147 23.3674 26.3174 23.2642C26.7248 23.0565 27.056 22.7245 27.2637 22.3169C27.367 22.1142 27.4321 21.8586 27.4658 21.4458C27.5001 21.027 27.5 20.4913 27.5 19.7378ZM10.6689 14.1665C10.8036 14.1665 10.9333 14.2216 11.0273 14.3179C11.1211 14.4141 11.172 14.5439 11.1689 14.6782V14.6812C11.1658 14.8138 11.1107 14.9402 11.0146 15.0317C10.9186 15.1233 10.7898 15.1726 10.6572 15.1694H10.6543C10.3831 15.1627 10.167 14.9408 10.167 14.6694V14.6665C10.1672 14.3905 10.391 14.1665 10.667 14.1665H10.6689ZM16.0029 14.1665C16.1375 14.1666 16.2663 14.2216 16.3604 14.3179C16.4542 14.4141 16.506 14.5438 16.5029 14.6782V14.6812C16.4998 14.8138 16.4437 14.9402 16.3477 15.0317C16.2517 15.1232 16.1228 15.1726 15.9902 15.1694H15.9883C15.7169 15.1629 15.5 14.9409 15.5 14.6694V14.6665C15.5002 14.3905 15.724 14.1665 16 14.1665H16.0029ZM21.3359 14.1665C21.4706 14.1665 21.5993 14.2215 21.6934 14.3179C21.7873 14.4141 21.839 14.5438 21.8359 14.6782V14.6812C21.8328 14.8138 21.7767 14.9402 21.6807 15.0317C21.5848 15.123 21.4566 15.1725 21.3242 15.1694H21.3213C21.0499 15.1629 20.833 14.9409 20.833 14.6694V14.6665C20.8332 14.3906 21.0571 14.1667 21.333 14.1665H21.3359ZM28.5 19.7378C28.5 20.4747 28.5002 21.0579 28.4619 21.5269C28.4231 22.0017 28.3423 22.4039 28.1553 22.771C27.8517 23.3667 27.3673 23.8521 26.7715 24.1558C26.4043 24.3428 26.0014 24.4236 25.5264 24.4624C25.0573 24.5007 24.4741 24.5005 23.7373 24.5005H12.1631C11.5885 24.5005 11.3711 24.5026 11.167 24.5444C10.9752 24.5838 10.7895 24.6483 10.6162 24.7368C10.4333 24.8302 10.2643 24.9627 9.8252 25.314L9.81738 25.3198L9.80957 25.3247L7.77832 26.9507C7.23156 27.3881 6.79476 27.7385 6.43555 27.9761C6.084 28.2085 5.72315 28.3926 5.33496 28.3931C4.77675 28.3936 4.24863 28.1397 3.90039 27.7036C3.65824 27.4003 3.57621 27.0041 3.53809 26.5845C3.49913 26.1556 3.5 25.5955 3.5 24.895V9.6001C3.5 8.86182 3.49972 8.2779 3.53809 7.80811C3.57694 7.33241 3.65749 6.92949 3.84473 6.56201C4.14833 5.96617 4.63267 5.48182 5.22852 5.17822C5.596 4.99098 5.99892 4.91044 6.47461 4.87158C6.94441 4.83322 7.52833 4.8335 8.2666 4.8335H23.7334C24.4719 4.8335 25.0559 4.8332 25.5254 4.87158C26.0007 4.91045 26.4031 4.99104 26.7705 5.17822C27.3657 5.48153 27.8514 5.96571 28.1553 6.56201C28.3424 6.92919 28.4231 7.33208 28.4619 7.80713C28.5002 8.27629 28.5 8.8594 28.5 9.59619V19.7378Z"/>
</svg>
