<svg width="100%" height="100%" viewBox="0 0 32 32" fill="none" xmlns="http://www.w3.org/2000/svg">
<path d="M7.46615 26.5606L9.4981 24.9351L9.51303 24.9236C9.93665 24.5847 10.1504 24.4137 10.3889 24.2918C10.6029 24.1825 10.831 24.1029 11.0664 24.0546C11.3317 24.0002 11.608 24.0002 12.1628 24.0002H23.7375C25.228 24.0002 25.9742 24.0002 26.544 23.7098C27.0458 23.4541 27.454 23.0458 27.7096 22.544C28 21.9741 28 21.2288 28 19.7383V9.59604C28 8.10549 28 7.3591 27.7096 6.78923C27.454 6.28746 27.045 5.87981 26.5432 5.62415C25.9728 5.3335 25.2271 5.3335 23.7336 5.3335H8.26693C6.77345 5.3335 6.02616 5.3335 5.45573 5.62415C4.95396 5.87981 4.54631 6.28746 4.29065 6.78923C4 7.35966 4 8.10695 4 9.60042V24.8951C4 26.316 4 27.0264 4.29128 27.3913C4.54459 27.7086 4.92858 27.8932 5.33464 27.8928C5.80153 27.8923 6.35658 27.4483 7.46615 26.5606Z" stroke="current" stroke-linecap="round" stroke-linejoin="round"/>
</svg>
