<svg width="32" height="32" viewBox="0 0 32 32" fill="none" xmlns="http://www.w3.org/2000/svg">
<path d="M27.5 16C27.5 9.64873 22.3513 4.5 16 4.5C9.64873 4.5 4.5 9.64873 4.5 16C4.5 22.3513 9.64873 27.5 16 27.5C22.3513 27.5 27.5 22.3513 27.5 16ZM14.3135 11.6465C14.5088 11.4514 14.8253 11.4513 15.0205 11.6465L19.0205 15.6465C19.2156 15.8417 19.2156 16.1583 19.0205 16.3535L15.0205 20.3535C14.8253 20.5487 14.5088 20.5486 14.3135 20.3535C14.1182 20.1583 14.1182 19.8417 14.3135 19.6465L17.96 16L14.3135 12.3535C14.1182 12.1583 14.1182 11.8417 14.3135 11.6465ZM28.5 16C28.5 22.9036 22.9036 28.5 16 28.5C9.09644 28.5 3.5 22.9036 3.5 16C3.5 9.09644 9.09644 3.5 16 3.5C22.9036 3.5 28.5 9.09644 28.5 16Z" fill="#212121"/>
</svg>
