<svg  viewBox="0 0 32 32" fill="none" xmlns="http://www.w3.org/2000/svg">
<path d="M21.667 13.333C21.6668 8.73078 17.9353 5 13.333 5C8.73089 5.00018 5.00018 8.73089 5 13.333C5 17.9353 8.73078 21.6668 13.333 21.667C17.9354 21.667 21.667 17.9354 21.667 13.333ZM23.667 13.333C23.667 15.8264 22.783 18.1133 21.3125 19.8984L28.707 27.293C29.0976 27.6835 29.0976 28.3165 28.707 28.707C28.3165 29.0976 27.6835 29.0976 27.293 28.707L19.8984 21.3125C18.1133 22.783 15.8264 23.667 13.333 23.667C7.62622 23.6668 3 19.0398 3 13.333C3.00018 7.62632 7.62632 3.00018 13.333 3C19.0398 3 23.6668 7.62622 23.667 13.333Z" />
</svg>
