<svg width="32" height="32" viewBox="0 0 32 32" fill="none" xmlns="http://www.w3.org/2000/svg">
<path d="M13.7438 18.2563L20.2053 11.7948M26.8151 7.8514L21.361 25.5775C20.8722 27.1661 20.6276 27.9608 20.206 28.2242C19.8403 28.4526 19.3876 28.4908 18.9893 28.3256C18.5301 28.135 18.1574 27.3909 17.4139 25.9038L13.9593 18.9946C13.8413 18.7587 13.7822 18.6412 13.7034 18.5389C13.6335 18.4482 13.5527 18.3664 13.462 18.2965C13.3621 18.2195 13.2466 18.1617 13.0211 18.049L6.09598 14.5864C4.6089 13.8429 3.8653 13.4708 3.67476 13.0116C3.5095 12.6133 3.54719 12.1601 3.77567 11.7945C4.03912 11.3728 4.83372 11.1279 6.4228 10.6389L24.1489 5.18474C25.3982 4.80034 26.0231 4.6083 26.4451 4.76321C26.8126 4.89815 27.1024 5.18763 27.2373 5.55518C27.3921 5.97694 27.2 6.60152 26.8159 7.84956L26.8151 7.8514Z" stroke="#212121" stroke-linecap="round" stroke-linejoin="round"/>
</svg>
