<svg width="32" height="32" viewBox="0 0 32 32" fill="none" xmlns="http://www.w3.org/2000/svg">
<path d="M25.5046 4.28266C25.8919 4.20131 26.2694 4.16598 26.6169 4.2934C27.1221 4.47887 27.5212 4.87769 27.7068 5.38324C27.8342 5.73079 27.7989 6.10845 27.7175 6.49555C27.635 6.88812 27.4827 7.38218 27.2937 7.99652L27.2927 7.99848L21.8386 25.7241C21.5971 26.5089 21.4066 27.1309 21.2214 27.5864C21.0431 28.0247 20.8271 28.4251 20.4704 28.6479C19.9682 28.9616 19.3457 29.015 18.7976 28.7875C18.4091 28.6263 18.1307 28.2661 17.8825 27.8627C17.6247 27.4437 17.3339 26.8622 16.9665 26.1274L13.5124 19.2182C13.3864 18.9661 13.3499 18.8994 13.3074 18.8442C13.2624 18.7859 13.2119 18.7352 13.157 18.6928C13.1042 18.6521 13.0396 18.6175 12.7976 18.4965L5.87278 15.0336C5.13824 14.6664 4.55629 14.3762 4.13743 14.1186C3.73429 13.8706 3.37388 13.5919 3.21263 13.2036C2.98539 12.6559 3.03741 12.0323 3.3513 11.5297C3.57415 11.1731 3.97526 10.9572 4.4138 10.7788C4.86935 10.5934 5.49099 10.4022 6.2761 10.1606L24.0017 4.70649C24.6169 4.5172 25.1117 4.36519 25.5046 4.28266ZM26.2732 5.23285C26.1989 5.20559 26.0524 5.18919 25.7097 5.26117C25.3724 5.33205 24.9295 5.46749 24.2956 5.66254L6.57005 11.1166C5.76637 11.3639 5.19561 11.5398 4.79075 11.7045C4.36961 11.8759 4.24077 11.994 4.19993 12.059C4.05707 12.2877 4.0333 12.571 4.13645 12.8198C4.1658 12.8905 4.2732 13.0275 4.66087 13.2661C5.03318 13.4951 5.56774 13.7629 6.32005 14.1391L13.2449 17.602C13.3531 17.6561 13.45 17.704 13.5388 17.7534L19.8513 11.4409C20.0466 11.2456 20.364 11.2456 20.5593 11.4409C20.7543 11.636 20.7541 11.9526 20.5593 12.1479L14.2458 18.4604C14.2974 18.5527 14.3478 18.6546 14.406 18.7709L17.8611 25.6801C18.2372 26.4324 18.5049 26.9669 18.7341 27.3393C18.9728 27.7271 19.1106 27.8344 19.1814 27.8637C19.4296 27.9666 19.7122 27.9433 19.9411 27.8002C20.006 27.7597 20.1231 27.6312 20.2947 27.2094C20.4593 26.8046 20.6362 26.2338 20.8835 25.4301L26.3376 7.70453V7.70258L26.5857 6.8852C26.6528 6.65324 26.7036 6.45809 26.739 6.28949C26.811 5.94704 26.7955 5.8011 26.7683 5.72699C26.684 5.49774 26.5027 5.3173 26.2732 5.23285Z" fill="#212121"/>
</svg>
