<svg viewBox="0 0 32 32" fill="none" xmlns="http://www.w3.org/2000/svg">
<path d="M11.0597 2.50798C11.571 2.40118 12.0998 2.40393 12.6114 2.51872C13.226 2.65664 13.7797 3.00264 14.506 3.43864L14.9806 3.7238C15.0676 3.77604 15.0836 3.78547 15.1026 3.79607C15.3344 3.92523 15.5932 3.99746 15.8595 4.00603C15.8823 4.00676 15.9092 4.007 16.002 4.007C16.0946 4.007 16.1197 4.00676 16.1427 4.00603C16.4086 3.99749 16.6673 3.92562 16.8985 3.79704C16.919 3.78566 16.9422 3.77272 17.0206 3.72575L17.4923 3.44255C17.4974 3.43948 17.5027 3.43674 17.5079 3.43376C18.2239 3.0049 18.7716 2.66506 19.38 2.52849C19.888 2.41447 20.4148 2.40905 20.9259 2.51482C21.5403 2.64199 22.0973 2.97644 22.8282 3.39763L23.4864 3.77751C24.2201 4.20028 24.7895 4.51449 25.2081 4.98357C25.5559 5.37329 25.816 5.83327 25.9718 6.3322C26.1587 6.93091 26.1363 7.57941 26.1222 8.41814L26.1124 8.98552C26.111 9.06779 26.111 9.09918 26.1114 9.12614C26.1155 9.39136 26.183 9.65299 26.3087 9.88786C26.3195 9.90811 26.3325 9.93039 26.379 10.0109C26.4327 10.1038 26.439 10.1148 26.4503 10.133H26.4493C26.5889 10.3576 26.7808 10.5461 27.0089 10.6828C27.0306 10.6958 27.0558 10.7103 27.131 10.7521L27.6026 11.0138C27.6091 11.0173 27.6158 11.021 27.6222 11.0246C28.3566 11.4332 28.9282 11.7381 29.3526 12.1984C29.7054 12.5811 29.9728 13.0347 30.1368 13.5285C30.3342 14.1231 30.3244 14.7711 30.3263 15.6134L30.3282 16.3791C30.3301 17.2166 30.3428 17.8668 30.1466 18.4631C29.983 18.9601 29.7154 19.4167 29.3604 19.8019C28.9333 20.2652 28.3558 20.5717 27.6144 20.9826L27.1319 21.2492L27.13 21.2502L27.0118 21.3176C26.783 21.454 26.59 21.6435 26.4493 21.8703C26.4346 21.8941 26.4176 21.921 26.378 21.9894C26.3323 22.0686 26.3194 22.0906 26.3087 22.1105C26.183 22.3449 26.1154 22.6073 26.1114 22.8742C26.111 22.9007 26.111 22.9313 26.1124 23.0129L26.1222 23.5988C26.1361 24.4289 26.1591 25.0744 25.9737 25.6701C25.8189 26.1676 25.5599 26.6264 25.214 27.0158C24.7983 27.4837 24.2318 27.7982 23.5069 28.2189L22.8468 28.6027C22.1161 29.0268 21.5576 29.3647 20.9415 29.4933C20.4283 29.6004 19.8993 29.595 19.3897 29.4806C18.7752 29.3427 18.223 28.9971 17.4962 28.5607L16.9942 28.2599C16.9321 28.2226 16.9148 28.2118 16.8995 28.2033C16.6677 28.0741 16.407 28.0019 16.1407 27.9933H15.8585C15.5937 28.0018 15.3349 28.0742 15.1026 28.2033C15.0817 28.215 15.0571 28.2288 14.9806 28.2746L14.5089 28.5568C13.7854 28.99 13.2343 29.3344 12.6222 29.4718C12.1131 29.5861 11.5854 29.5901 11.0753 29.4845C10.4611 29.3573 9.90489 29.023 9.17392 28.6017L8.51572 28.2228C7.78274 27.8004 7.21187 27.4851 6.79306 27.0158C6.44532 26.626 6.18506 26.1667 6.02939 25.6681C5.84209 25.0682 5.86371 24.4181 5.87802 23.5705L5.88779 23.0265C5.8894 22.9308 5.88918 22.903 5.88876 22.8781C5.88428 22.6148 5.81884 22.3571 5.69736 22.1271C5.68671 22.107 5.67647 22.0904 5.62314 21.9972C5.57388 21.9112 5.55991 21.8883 5.54697 21.8674C5.4075 21.642 5.21618 21.4522 4.98935 21.3156C4.96956 21.3037 4.95081 21.2937 4.85849 21.2424L4.37998 20.9758C3.64382 20.5662 3.07309 20.2622 2.64853 19.8019C2.29445 19.4179 2.02782 18.9633 1.86435 18.4709C1.66728 17.8771 1.67584 17.2316 1.67392 16.3859L1.67197 15.6369C1.67004 14.7872 1.65778 14.1356 1.85459 13.5373C2.01812 13.0402 2.28664 12.5837 2.64169 12.1984C3.06878 11.735 3.64486 11.4289 4.38681 11.0177L4.86923 10.7502C4.95564 10.7023 4.97286 10.6928 4.9913 10.6818C5.21976 10.5455 5.41217 10.3565 5.55283 10.1301C5.56402 10.112 5.57192 10.0986 5.62314 10.0099C5.66899 9.93056 5.68077 9.90884 5.6915 9.88884C5.81853 9.65193 5.88674 9.38997 5.89072 9.12614C5.89071 9.12501 5.89126 9.11851 5.89072 9.0988C5.89007 9.07493 5.88862 9.03593 5.88779 8.9865L5.87802 8.42107C5.86381 7.57651 5.84229 6.92858 6.02841 6.33025C6.18309 5.83323 6.44192 5.37433 6.78818 4.98454C7.20262 4.51807 7.76581 4.20307 8.4874 3.78435C8.49186 3.78166 8.49657 3.77915 8.50107 3.77654L9.15146 3.39958L9.15732 3.39665C9.88743 2.97287 10.4441 2.63655 11.0597 2.50798ZM12.1739 4.46989C11.9429 4.41806 11.7025 4.41627 11.4688 4.46501C11.2436 4.51205 11.0097 4.63454 10.1593 5.1281C10.1538 5.13127 10.1472 5.13284 10.1417 5.13591L9.50498 5.507C9.50272 5.50834 9.50041 5.50959 9.49814 5.51091C8.65514 6.00018 8.4349 6.14203 8.2833 6.31267C8.12638 6.4893 8.00907 6.6976 7.93857 6.924C7.87025 7.14353 7.86156 7.40833 7.87802 8.38689L7.88779 8.95329C7.8884 8.98941 7.88894 9.01481 7.88974 9.04411C7.89047 9.07065 7.89138 9.11106 7.89072 9.15544C7.88198 9.74406 7.73004 10.3197 7.45419 10.8342C7.42513 10.8883 7.39434 10.9411 7.35459 11.0099C7.31998 11.0698 7.28536 11.1311 7.25205 11.1847C6.94299 11.6825 6.51942 12.0991 6.01572 12.3996C5.96169 12.4318 5.90141 12.465 5.83798 12.5002L5.35654 12.7668C4.49437 13.2446 4.26879 13.3842 4.1124 13.5539C3.95136 13.7286 3.82945 13.9359 3.75498 14.1623C3.68276 14.3818 3.66973 14.6477 3.67197 15.632L3.67392 16.381C3.67614 17.357 3.69027 17.6225 3.76279 17.841C3.83784 18.067 3.95922 18.2729 4.11826 18.4455C4.2738 18.6142 4.49714 18.7528 5.35263 19.2287L5.83017 19.4943C5.8993 19.5328 5.96317 19.5675 6.02158 19.6027C6.52089 19.9034 6.94152 20.3192 7.24814 20.8146C7.28328 20.8714 7.31656 20.9291 7.35947 21.0041C7.39726 21.0701 7.43439 21.1338 7.46591 21.1935C7.73548 21.704 7.87898 22.2699 7.88876 22.8439C7.88988 22.9094 7.88829 22.9733 7.88681 23.0607L7.87802 23.6037C7.86146 24.5849 7.86995 24.8514 7.93857 25.0715C8.00935 25.2982 8.1272 25.5076 8.28525 25.6847C8.43849 25.8565 8.66172 25.9984 9.51376 26.4894L10.172 26.8693C11.0213 27.3587 11.2558 27.4799 11.4806 27.5265C11.7129 27.5746 11.9529 27.5725 12.1837 27.5207C12.4077 27.4704 12.6399 27.3449 13.4815 26.841L13.9532 26.5588C14.0255 26.5155 14.0773 26.4851 14.131 26.4552C14.6408 26.1718 15.2102 26.014 15.794 25.9953C15.8564 25.9933 15.9184 25.9933 15.9991 25.9933C16.0801 25.9933 16.1426 25.9933 16.2052 25.9953C16.7893 26.0141 17.3618 26.1722 17.8731 26.4572C17.9228 26.4849 17.9712 26.5136 18.0235 26.5451L18.5255 26.8468C19.3693 27.3534 19.6023 27.4789 19.8272 27.5295C20.0604 27.5818 20.3014 27.5838 20.5333 27.5353C20.7583 27.4883 20.9929 27.3655 21.8429 26.8722L22.503 26.4894C23.3464 25.9999 23.5672 25.8584 23.7188 25.6877C23.8761 25.5107 23.9932 25.3022 24.0636 25.0763C24.1309 24.8601 24.1384 24.5997 24.1222 23.633L24.1124 23.047C24.1109 22.9576 24.1106 22.9026 24.1114 22.8449C24.1201 22.2594 24.2689 21.6831 24.546 21.1662V21.1652C24.575 21.1111 24.606 21.0579 24.6456 20.9894C24.6915 20.91 24.7195 20.8633 24.7491 20.8156C25.0583 20.3174 25.4834 19.9003 25.9874 19.5998C26.0399 19.5685 26.0923 19.5388 26.1602 19.5011C26.1647 19.4987 26.1695 19.4967 26.1739 19.4943L26.6446 19.2326C27.5066 18.7549 27.7334 18.6159 27.8897 18.4465C28.0508 18.2717 28.1727 18.0643 28.2472 17.8381C28.3185 17.6213 28.3304 17.359 28.3282 16.384L28.3263 15.6183C28.324 14.6398 28.3115 14.3769 28.2394 14.1593C28.1648 13.9347 28.0423 13.7278 27.8819 13.5539C27.7268 13.3857 27.5035 13.2477 26.6495 12.7726H26.6485L26.6476 12.7717L26.1593 12.4992C26.0829 12.4567 26.033 12.4294 25.9815 12.3986C25.4815 12.0991 25.0594 11.684 24.7511 11.1877C24.7173 11.1333 24.6807 11.0683 24.6476 11.0109C24.6073 10.9413 24.5755 10.8873 24.546 10.8322C24.2701 10.317 24.1204 9.74196 24.1114 9.15642C24.1105 9.09809 24.1109 9.04209 24.1124 8.95134L24.1222 8.38396C24.1386 7.4083 24.1307 7.14601 24.0626 6.9279C23.9919 6.7016 23.874 6.49279 23.7159 6.3156C23.5625 6.14368 23.339 6.00065 22.4874 5.50993L21.8292 5.13103C20.9794 4.64135 20.7454 4.52036 20.5206 4.4738C20.2892 4.42591 20.0493 4.42762 19.8175 4.47966C19.5942 4.52988 19.363 4.65437 18.5245 5.15642C18.5196 5.15935 18.5138 5.16139 18.5089 5.16423L18.0479 5.44157C17.9775 5.48378 17.9244 5.51495 17.8702 5.54509C17.3594 5.82903 16.7898 5.98635 16.2071 6.00505C16.1447 6.00705 16.0827 6.007 16.002 6.007C15.922 6.007 15.8575 6.00706 15.795 6.00505C15.211 5.98624 14.6403 5.82809 14.129 5.54314C14.0731 5.51198 14.0137 5.47616 13.9513 5.43864L13.4767 5.15349C12.6322 4.64654 12.3987 4.52041 12.1739 4.46989ZM20.3341 16.0002C20.3341 13.6069 18.3933 11.6672 16.0001 11.6672C13.6071 11.6674 11.6671 13.6071 11.6671 16.0002C11.6671 18.3932 13.6071 20.3329 16.0001 20.3332C18.3933 20.3332 20.334 18.3934 20.3341 16.0002ZM22.3341 16.0002C22.334 19.4979 19.4979 22.3332 16.0001 22.3332C12.5025 22.3329 9.66711 19.4978 9.66709 16.0002C9.66709 12.5025 12.5025 9.6674 16.0001 9.66716C19.4979 9.66716 22.3341 12.5024 22.3341 16.0002Z" />
</svg>
