<svg width="32" height="32" viewBox="0 0 32 32" fill="none" xmlns="http://www.w3.org/2000/svg">
<path d="M14.5556 3.59193C15.1243 2.35891 16.8771 2.35845 17.4462 3.59193L20.7616 10.7794L28.623 11.712C29.9738 11.8722 30.5112 13.5413 29.5155 14.462L23.704 19.8361L25.247 27.6007C25.5112 28.9307 24.0961 29.9651 22.9091 29.3009L16.0019 25.4328L9.09366 29.2999C7.91039 29.9623 6.4887 28.935 6.75382 27.6007L8.29679 19.8361L2.48527 14.462C1.48809 13.5399 2.03005 11.872 3.37882 11.712L11.2401 10.7794L14.5556 3.59193ZM12.8593 11.6867C12.6267 12.1908 12.1491 12.5346 11.6015 12.5997L4.15226 13.4835L9.65909 18.5773C10.067 18.9545 10.247 19.515 10.1396 20.0558L8.67667 27.4122L15.2245 23.7492L15.4101 23.6603C15.8516 23.4832 16.3545 23.5112 16.7782 23.7482L23.3232 27.4122L21.8622 20.0558C21.7546 19.5141 21.9349 18.9538 22.3417 18.5773L27.8476 13.4835L20.4003 12.6007C19.8492 12.5354 19.3747 12.1877 19.1435 11.6867L16.0009 4.87416L12.8593 11.6867Z" fill="#212121"/>
</svg>
