<svg viewBox="0 0 32 32" fill="none" xmlns="http://www.w3.org/2000/svg">
<path d="M14.9413 3.76961C15.3583 2.86595 16.6433 2.86577 17.0605 3.76961L20.4374 11.0899C20.4622 11.1431 20.5118 11.1789 20.5683 11.1856L28.5732 12.1348C29.5627 12.2522 29.9572 13.4743 29.2275 14.1495L23.3095 19.6231C23.2675 19.662 23.2484 19.7202 23.2597 19.7774L24.83 27.6837C25.0238 28.659 23.9859 29.4166 23.1161 28.9298L16.0829 24.9923C16.0332 24.9644 15.9721 24.9636 15.9208 24.9923L8.88568 28.9288C8.01802 29.4143 6.9766 28.6612 7.17083 27.6837L8.74212 19.7784C8.75362 19.7205 8.73387 19.6617 8.69232 19.6231L2.77337 14.1495C2.04276 13.4735 2.44012 12.252 3.42865 12.1348L11.4335 11.1846C11.4918 11.1776 11.5415 11.1414 11.5654 11.0899L14.9413 3.76961ZM16.1523 4.18855C16.0927 4.05984 15.9092 4.05944 15.8495 4.18855L12.4736 11.5089C12.3032 11.8781 11.9526 12.1302 11.5507 12.1778L3.54584 13.127C3.40485 13.144 3.34873 13.3186 3.45306 13.4151L9.37103 18.8887C9.66969 19.1649 9.80132 19.576 9.72259 19.9727L8.15228 27.879C8.12492 28.0172 8.27237 28.1264 8.3974 28.0567L15.4326 24.1202C15.7858 23.9225 16.2164 23.9206 16.5712 24.1192L23.6044 28.0577C23.7275 28.1266 23.8773 28.0195 23.8495 27.879L22.2792 19.9727C22.2003 19.5753 22.3325 19.1646 22.6308 18.8887L28.5478 13.4151H28.5488C28.6533 13.3177 28.5949 13.1436 28.455 13.127L20.4501 12.1778C20.0464 12.1299 19.6988 11.8755 19.5292 11.5079L16.1523 4.18855Z" />
</svg>
