<svg viewBox="0 0 32 32" xmlns="http://www.w3.org/2000/svg">
<path d="M7.00024 23.7334V9H5.33325C4.78097 9 4.33325 8.55229 4.33325 8C4.33325 7.44772 4.78097 7 5.33325 7H9.67407C9.67807 6.80995 9.68356 6.63412 9.69458 6.47266C9.72344 6.05002 9.78524 5.65072 9.94556 5.26367C10.3175 4.36571 11.0311 3.65162 11.9299 3.2793C12.317 3.11898 12.7162 3.0562 13.1389 3.02735C13.5527 2.99912 14.0588 3 14.6663 3H17.3333C17.9408 3 18.4468 2.99911 18.8606 3.02735C19.2833 3.0562 19.6825 3.11897 20.0696 3.2793C20.9683 3.65155 21.6819 4.3656 22.054 5.26367C22.2143 5.6507 22.277 6.04994 22.3059 6.47266C22.3169 6.63416 22.3224 6.80991 22.3264 7H26.6663C27.2185 7 27.6663 7.44772 27.6663 8C27.6663 8.55229 27.2185 9 26.6663 9H25.0002V23.7373C25.0002 24.4661 25.0006 25.0732 24.9602 25.5674C24.9189 26.073 24.8296 26.5479 24.6008 26.9971C24.2492 27.6871 23.6869 28.2492 22.9973 28.6006C22.548 28.8295 22.0725 28.9186 21.5667 28.96C21.0727 29.0003 20.4661 29 19.7375 29H12.2629C11.5342 29 10.9262 29.0004 10.4319 28.96C9.92613 28.9186 9.4505 28.8295 9.00122 28.6006C8.31059 28.2486 7.75069 27.686 7.39966 26.9971C7.17072 26.5476 7.0807 26.0726 7.03931 25.5664C6.99888 25.0717 7.00024 24.4636 7.00024 23.7334ZM12.3333 22.667V13.333C12.3334 12.7809 12.7811 12.333 13.3333 12.333C13.8854 12.333 14.3331 12.7809 14.3333 13.333V22.667C14.3331 23.2191 13.8854 23.667 13.3333 23.667C12.7811 23.667 12.3334 23.2191 12.3333 22.667ZM17.6663 22.667V13.333C17.6664 12.781 18.1142 12.3332 18.6663 12.333C19.2184 12.333 19.6661 12.7809 19.6663 13.333V22.667C19.6661 23.2191 19.2184 23.667 18.6663 23.667C18.1142 23.6668 17.6664 23.219 17.6663 22.667ZM14.6663 5C14.0316 5 13.6056 5.00095 13.2756 5.02344C12.9549 5.04532 12.7984 5.08442 12.6956 5.12696C12.2876 5.29593 11.9626 5.62048 11.7932 6.0293C11.7506 6.13221 11.7116 6.28873 11.6897 6.60938C11.6817 6.72592 11.6775 6.85448 11.6741 7H20.3264C20.323 6.85447 20.3178 6.72592 20.3098 6.60938C20.2879 6.28869 20.2489 6.13227 20.2063 6.0293C20.037 5.62062 19.712 5.29599 19.304 5.12696C19.2011 5.0844 19.0445 5.04532 18.7239 5.02344C18.394 5.00095 17.968 5 17.3333 5H14.6663ZM9.00024 23.7334C9.00024 24.4966 9.00024 25.009 9.03247 25.4033C9.06374 25.7858 9.12034 25.9691 9.18188 26.0898C9.34208 26.404 9.59696 26.6591 9.90942 26.8184C10.0298 26.8797 10.2128 26.9356 10.595 26.9668C10.9889 26.999 11.5012 27 12.2629 27H19.7375C20.499 27 21.01 26.999 21.4036 26.9668C21.7855 26.9356 21.9685 26.8798 22.0891 26.8184C22.4028 26.6585 22.6589 26.4031 22.8186 26.0898C22.88 25.9693 22.9358 25.7863 22.967 25.4043C22.9992 25.0106 23.0002 24.4991 23.0002 23.7373V9H9.00024V23.7334Z" />
</svg>
