<svg viewBox="0 0 32 32" xmlns="http://www.w3.org/2000/svg">
<path d="M25.6663 28C25.6663 26.6283 24.7738 25.2349 23.012 24.1338C21.2643 23.0416 18.788 22.3331 16.0002 22.333C13.2122 22.333 10.7353 23.0415 8.98755 24.1338C7.22574 25.2349 6.33325 26.6283 6.33325 28C6.33325 28.5523 5.88554 29 5.33325 29C4.78097 29 4.33325 28.5523 4.33325 28C4.33325 25.6899 5.8283 23.7492 7.927 22.4375C10.0399 21.117 12.8973 20.333 16.0002 20.333C19.103 20.3331 21.9597 21.1171 24.0725 22.4375C26.1713 23.7492 27.6663 25.6898 27.6663 28C27.6663 28.5523 27.2185 29 26.6663 29C26.1141 28.9998 25.6663 28.5522 25.6663 28ZM21.6663 10.667C21.6663 7.53749 19.1297 5.00018 16.0002 5C12.8706 5 10.3333 7.53738 10.3333 10.667C10.3334 13.7965 12.8707 16.333 16.0002 16.333C19.1296 16.3328 21.6661 13.7963 21.6663 10.667ZM23.6663 10.667C23.6661 14.9009 20.2342 18.3328 16.0002 18.333C11.7662 18.333 8.33343 14.901 8.33325 10.667C8.33325 6.43281 11.7661 3 16.0002 3C20.2343 3.00018 23.6663 6.43292 23.6663 10.667Z" />
</svg>
