<svg width="32" height="32" viewBox="0 0 32 32" fill="none" xmlns="http://www.w3.org/2000/svg">
<path d="M27 16C27 9.92487 22.0751 5 16 5C9.92487 5 5 9.92487 5 16C5 22.0751 9.92487 27 16 27C22.0751 27 27 22.0751 27 16ZM15 21.333V14.667C15 14.1147 15.4477 13.667 16 13.667C16.5523 13.667 17 14.1147 17 14.667V21.333C17 21.8853 16.5523 22.333 16 22.333C15.4477 22.333 15 21.8853 15 21.333ZM29 16C29 23.1797 23.1797 29 16 29C8.8203 29 3 23.1797 3 16C3 8.8203 8.8203 3 16 3C23.1797 3 29 8.8203 29 16ZM17.0664 10.7998C17.0664 11.3513 16.6199 11.7987 16.0684 11.7998H15.9355C15.67 11.8003 15.4155 11.6954 15.2275 11.5078C15.0396 11.3202 14.9336 11.0654 14.9336 10.7998V10.667C14.9336 10.1147 15.3813 9.66699 15.9336 9.66699H16.0664C16.6187 9.66699 17.0664 10.1147 17.0664 10.667V10.7998Z" fill="#212121"/>
</svg>
